<svg width="51" height="51" viewBox="0 0 51 51" fill="none" xmlns="http://www.w3.org/2000/svg">
<g clip-path="url(#clip0_36_9)">
<path d="M41.6978 35.4834L31.7541 25.5397L41.6978 15.596C42.918 14.3758 42.918 12.3967 41.6978 11.1766L39.4881 8.96687C38.2679 7.74669 36.2889 7.74669 35.0687 8.96687L25.125 18.9106L15.1813 8.96687C13.9611 7.74669 11.9821 7.74669 10.7619 8.96687L8.55219 11.1766C7.33201 12.3967 7.33201 14.3758 8.55219 15.596L18.4959 25.5397L8.55219 35.4834C7.33201 36.7035 7.33201 38.6826 8.55219 39.9028L10.7619 42.1125C11.9821 43.3327 13.9611 43.3327 15.1813 42.1125L25.125 32.1688L35.0687 42.1125C36.2889 43.3327 38.2679 43.3327 39.4881 42.1125L41.6978 39.9028C42.918 38.6826 42.918 36.7035 41.6978 35.4834Z" fill="#373737"/>
</g>
<defs>
<clipPath id="clip0_36_9">
<rect width="50" height="50" fill="white" transform="translate(0.125 0.539673)"/>
</clipPath>
</defs>
</svg>
