<svg width="59" height="50" viewBox="0 0 59 50" fill="none" xmlns="http://www.w3.org/2000/svg">
<path d="M10.0348 1.14053C10.9708 0.680674 13.4285 -0.285291 17.437 0.0812531C24.1199 1.05071 29.2428 1.82359 31.0094 2.10904L26.7123 4.69671C27.7154 5.70142 28.5824 6.84181 29.2837 8.088L30.0789 7.1744L52.5353 26.811C54.5441 28.5675 54.6461 31.6578 52.7574 33.543C51.7055 34.5928 50.2656 35.0333 48.888 34.8492C49.8342 36.7054 49.5484 39.0464 47.9861 40.6221C46.5659 42.0546 44.4793 42.4512 42.6901 41.7774C42.6529 42.9902 42.1753 44.1949 41.2482 45.1302C39.6081 46.7843 37.0791 47.0573 35.1462 45.8952C34.963 46.8443 34.5065 47.7528 33.7723 48.4951C31.8896 50.3982 28.8521 50.5103 26.8342 48.7513L8.54224 32.8046C7.30391 31.725 6.71372 30.1784 6.80542 28.6563C2.69581 25.8375 0 21.1074 0 15.7475C0 9.08463 4.16565 3.3949 10.0348 1.14053Z" fill="url(#paint0_linear_6_404)"/>
<path d="M10.0348 1.14053C10.9708 0.680674 13.4285 -0.285291 17.437 0.0812531C24.1199 1.05071 29.2428 1.82359 31.0094 2.10904L26.7123 4.69671C27.7154 5.70142 28.5824 6.84181 29.2837 8.088L30.0789 7.1744L52.5353 26.811C54.5441 28.5675 54.6461 31.6578 52.7574 33.543C51.7055 34.5928 50.2656 35.0333 48.888 34.8492C49.8342 36.7054 49.5484 39.0464 47.9861 40.6221C46.5659 42.0546 44.4793 42.4512 42.6901 41.7774C42.6529 42.9902 42.1753 44.1949 41.2482 45.1302C39.6081 46.7843 37.0791 47.0573 35.1462 45.8952C34.963 46.8443 34.5065 47.7528 33.7723 48.4951C31.8896 50.3982 28.8521 50.5103 26.8342 48.7513L8.54224 32.8046C7.30391 31.725 6.71372 30.1784 6.80542 28.6563C2.69581 25.8375 0 21.1074 0 15.7475C0 9.08463 4.16565 3.3949 10.0348 1.14053Z" fill="url(#paint1_radial_6_404)"/>
<path d="M10.0348 1.14053C10.9708 0.680674 13.4285 -0.285291 17.437 0.0812531C24.1199 1.05071 29.2428 1.82359 31.0094 2.10904L26.7123 4.69671C27.7154 5.70142 28.5824 6.84181 29.2837 8.088L30.0789 7.1744L52.5353 26.811C54.5441 28.5675 54.6461 31.6578 52.7574 33.543C51.7055 34.5928 50.2656 35.0333 48.888 34.8492C49.8342 36.7054 49.5484 39.0464 47.9861 40.6221C46.5659 42.0546 44.4793 42.4512 42.6901 41.7774C42.6529 42.9902 42.1753 44.1949 41.2482 45.1302C39.6081 46.7843 37.0791 47.0573 35.1462 45.8952C34.963 46.8443 34.5065 47.7528 33.7723 48.4951C31.8896 50.3982 28.8521 50.5103 26.8342 48.7513L8.54224 32.8046C7.30391 31.725 6.71372 30.1784 6.80542 28.6563C2.69581 25.8375 0 21.1074 0 15.7475C0 9.08463 4.16565 3.3949 10.0348 1.14053Z" fill="url(#paint2_radial_6_404)"/>
<path d="M10.0348 1.14053C10.9708 0.680674 13.4285 -0.285291 17.437 0.0812531C24.1199 1.05071 29.2428 1.82359 31.0094 2.10904L26.7123 4.69671C27.7154 5.70142 28.5824 6.84181 29.2837 8.088L30.0789 7.1744L52.5353 26.811C54.5441 28.5675 54.6461 31.6578 52.7574 33.543C51.7055 34.5928 50.2656 35.0333 48.888 34.8492C49.8342 36.7054 49.5484 39.0464 47.9861 40.6221C46.5659 42.0546 44.4793 42.4512 42.6901 41.7774C42.6529 42.9902 42.1753 44.1949 41.2482 45.1302C39.6081 46.7843 37.0791 47.0573 35.1462 45.8952C34.963 46.8443 34.5065 47.7528 33.7723 48.4951C31.8896 50.3982 28.8521 50.5103 26.8342 48.7513L8.54224 32.8046C7.30391 31.725 6.71372 30.1784 6.80542 28.6563C2.69581 25.8375 0 21.1074 0 15.7475C0 9.08463 4.16565 3.3949 10.0348 1.14053Z" fill="url(#paint3_radial_6_404)"/>
<path d="M10.0348 1.14053C10.9708 0.680674 13.4285 -0.285291 17.437 0.0812531C24.1199 1.05071 29.2428 1.82359 31.0094 2.10904L26.7123 4.69671C27.7154 5.70142 28.5824 6.84181 29.2837 8.088L30.0789 7.1744L52.5353 26.811C54.5441 28.5675 54.6461 31.6578 52.7574 33.543C51.7055 34.5928 50.2656 35.0333 48.888 34.8492C49.8342 36.7054 49.5484 39.0464 47.9861 40.6221C46.5659 42.0546 44.4793 42.4512 42.6901 41.7774C42.6529 42.9902 42.1753 44.1949 41.2482 45.1302C39.6081 46.7843 37.0791 47.0573 35.1462 45.8952C34.963 46.8443 34.5065 47.7528 33.7723 48.4951C31.8896 50.3982 28.8521 50.5103 26.8342 48.7513L8.54224 32.8046C7.30391 31.725 6.71372 30.1784 6.80542 28.6563C2.69581 25.8375 0 21.1074 0 15.7475C0 9.08463 4.16565 3.3949 10.0348 1.14053Z" fill="url(#paint4_radial_6_404)"/>
<path d="M10.0348 1.14053C10.9708 0.680674 13.4285 -0.285291 17.437 0.0812531C24.1199 1.05071 29.2428 1.82359 31.0094 2.10904L26.7123 4.69671C27.7154 5.70142 28.5824 6.84181 29.2837 8.088L30.0789 7.1744L52.5353 26.811C54.5441 28.5675 54.6461 31.6578 52.7574 33.543C51.7055 34.5928 50.2656 35.0333 48.888 34.8492C49.8342 36.7054 49.5484 39.0464 47.9861 40.6221C46.5659 42.0546 44.4793 42.4512 42.6901 41.7774C42.6529 42.9902 42.1753 44.1949 41.2482 45.1302C39.6081 46.7843 37.0791 47.0573 35.1462 45.8952C34.963 46.8443 34.5065 47.7528 33.7723 48.4951C31.8896 50.3982 28.8521 50.5103 26.8342 48.7513L8.54224 32.8046C7.30391 31.725 6.71372 30.1784 6.80542 28.6563C2.69581 25.8375 0 21.1074 0 15.7475C0 9.08463 4.16565 3.3949 10.0348 1.14053Z" fill="url(#paint5_radial_6_404)"/>
<path d="M10.0348 1.14053C10.9708 0.680674 13.4285 -0.285291 17.437 0.0812531C24.1199 1.05071 29.2428 1.82359 31.0094 2.10904L26.7123 4.69671C27.7154 5.70142 28.5824 6.84181 29.2837 8.088L30.0789 7.1744L52.5353 26.811C54.5441 28.5675 54.6461 31.6578 52.7574 33.543C51.7055 34.5928 50.2656 35.0333 48.888 34.8492C49.8342 36.7054 49.5484 39.0464 47.9861 40.6221C46.5659 42.0546 44.4793 42.4512 42.6901 41.7774C42.6529 42.9902 42.1753 44.1949 41.2482 45.1302C39.6081 46.7843 37.0791 47.0573 35.1462 45.8952C34.963 46.8443 34.5065 47.7528 33.7723 48.4951C31.8896 50.3982 28.8521 50.5103 26.8342 48.7513L8.54224 32.8046C7.30391 31.725 6.71372 30.1784 6.80542 28.6563C2.69581 25.8375 0 21.1074 0 15.7475C0 9.08463 4.16565 3.3949 10.0348 1.14053Z" fill="url(#paint6_radial_6_404)"/>
<path fill-rule="evenodd" clip-rule="evenodd" d="M5.62628 25.5081C4.14774 27.0094 4.04766 29.3868 5.39481 31.007C6.42152 32.2417 8.01187 32.7906 9.46442 32.5139C8.73598 34.0114 8.99668 35.8668 10.2408 37.1065C11.3811 38.2427 13.0874 38.6531 14.5345 38.19C14.2847 39.4231 14.8699 40.8236 15.8716 41.8255C16.8599 42.8138 18.4107 43.0624 19.6433 42.6707C19.4892 43.7915 19.8234 45.0067 20.5655 45.8989C21.9518 47.5661 24.6469 47.9816 26.3589 46.5531L29.135 43.6831C30.5493 42.2951 30.4363 39.6257 29.135 38.1315C28.2509 37.1162 26.9967 36.6684 25.8065 36.8399C26.6096 35.436 26.2905 33.5552 25.2886 32.4084C24.2744 31.2479 22.8937 30.8006 21.6689 31.0628C22.3069 29.544 21.9942 27.6787 20.7672 26.4737C19.4692 25.1993 17.4837 25.0128 15.9498 25.8533C16.1889 24.6378 15.8808 23.3322 15.0099 22.332C13.4263 20.5137 10.6298 20.4278 8.93771 22.1459L5.62628 25.5081Z" fill="#FFB21A"/>
<path d="M27.0552 41.2245L32.0432 45.684" stroke="url(#paint7_linear_6_404)" stroke-width="7.92538" stroke-linecap="round"/>
<path d="M23.2599 4.54712C22.0031 4.90272 20.7831 5.30141 19.6321 5.74671L19.6367 5.75719C18.3639 6.3611 17.4868 7.63519 17.4868 9.10924C17.4868 11.1665 19.1953 12.8342 21.3032 12.8342C21.8166 12.8342 22.3061 12.7354 22.753 12.5561C23.1135 12.4438 23.4974 12.3224 23.8963 12.1962L23.9027 12.1944C24.233 12.0899 24.5929 11.9739 24.9691 11.8529C32.2046 9.52371 28.6087 8.70491 23.2599 4.54712Z" fill="#D77A15"/>
<path d="M33.417 13.446L51.1258 29.2159" stroke="url(#paint8_linear_6_404)" stroke-width="7.92538" stroke-linecap="round"/>
<path d="M41.7544 32.3563L46.7424 36.8159" stroke="url(#paint9_linear_6_404)" stroke-width="7.92538" stroke-linecap="round"/>
<path d="M35.0249 37.6699L40.0129 42.1295" stroke="url(#paint10_linear_6_404)" stroke-width="7.92538" stroke-linecap="round"/>
<path d="M2.98869 31.7273C1.49488 29.9306 1.60586 27.2945 3.24535 25.6298L6.91728 21.9015C8.7936 19.9965 11.8945 20.0917 13.6506 22.1081C15.2462 23.9401 15.1381 26.6983 13.4042 28.4L9.67895 32.2584C7.78147 34.1206 4.68848 33.7715 2.98869 31.7273Z" fill="url(#paint11_linear_6_404)"/>
<path d="M2.98869 31.7273C1.49488 29.9306 1.60586 27.2945 3.24535 25.6298L6.91728 21.9015C8.7936 19.9965 11.8945 20.0917 13.6506 22.1081C15.2462 23.9401 15.1381 26.6983 13.4042 28.4L9.67895 32.2584C7.78147 34.1206 4.68848 33.7715 2.98869 31.7273Z" fill="url(#paint12_linear_6_404)"/>
<path d="M2.98869 31.7273C1.49488 29.9306 1.60586 27.2945 3.24535 25.6298L6.91728 21.9015C8.7936 19.9965 11.8945 20.0917 13.6506 22.1081C15.2462 23.9401 15.1381 26.6983 13.4042 28.4L9.67895 32.2584C7.78147 34.1206 4.68848 33.7715 2.98869 31.7273Z" fill="url(#paint13_radial_6_404)"/>
<path d="M2.98869 31.7273C1.49488 29.9306 1.60586 27.2945 3.24535 25.6298L6.91728 21.9015C8.7936 19.9965 11.8945 20.0917 13.6506 22.1081C15.2462 23.9401 15.1381 26.6983 13.4042 28.4L9.67895 32.2584C7.78147 34.1206 4.68848 33.7715 2.98869 31.7273Z" fill="url(#paint14_radial_6_404)"/>
<path d="M8.36107 38.4909C6.6324 36.7683 6.61594 33.974 8.3242 32.2312L13.635 26.8127C15.3643 25.0486 18.2706 24.9698 20.0333 26.7006C21.8025 28.4375 21.8575 31.413 20.1103 33.1718L14.7643 38.6909C13.0323 40.4342 10.1018 40.2255 8.36107 38.4909Z" fill="url(#paint15_linear_6_404)"/>
<path d="M8.36107 38.4909C6.6324 36.7683 6.61594 33.974 8.3242 32.2312L13.635 26.8127C15.3643 25.0486 18.2706 24.9698 20.0333 26.7006C21.8025 28.4375 21.8575 31.413 20.1103 33.1718L14.7643 38.6909C13.0323 40.4342 10.1018 40.2255 8.36107 38.4909Z" fill="url(#paint16_linear_6_404)"/>
<path d="M8.36107 38.4909C6.6324 36.7683 6.61594 33.974 8.3242 32.2312L13.635 26.8127C15.3643 25.0486 18.2706 24.9698 20.0333 26.7006C21.8025 28.4375 21.8575 31.413 20.1103 33.1718L14.7643 38.6909C13.0323 40.4342 10.1018 40.2255 8.36107 38.4909Z" fill="url(#paint17_radial_6_404)"/>
<path d="M8.36107 38.4909C6.6324 36.7683 6.61594 33.974 8.3242 32.2312L13.635 26.8127C15.3643 25.0486 18.2706 24.9698 20.0333 26.7006C21.8025 28.4375 21.8575 31.413 20.1103 33.1718L14.7643 38.6909C13.0323 40.4342 10.1018 40.2255 8.36107 38.4909Z" fill="url(#paint18_radial_6_404)"/>
<path d="M19.8103 48.2406C18.4593 46.6158 18.3276 44.025 19.8103 42.5195L23.3632 39.3544C25.0601 37.6314 27.7246 37.8037 29.3127 39.6274C30.7557 41.2842 30.8808 44.2444 29.3127 45.7833L26.2344 48.9659C24.3363 50.5499 21.3475 50.0893 19.8103 48.2406Z" fill="url(#paint19_linear_6_404)"/>
<path d="M19.8103 48.2406C18.4593 46.6158 18.3276 44.025 19.8103 42.5195L23.3632 39.3544C25.0601 37.6314 27.7246 37.8037 29.3127 39.6274C30.7557 41.2842 30.8808 44.2444 29.3127 45.7833L26.2344 48.9659C24.3363 50.5499 21.3475 50.0893 19.8103 48.2406Z" fill="url(#paint20_linear_6_404)"/>
<path d="M19.8103 48.2406C18.4593 46.6158 18.3276 44.025 19.8103 42.5195L23.3632 39.3544C25.0601 37.6314 27.7246 37.8037 29.3127 39.6274C30.7557 41.2842 30.8808 44.2444 29.3127 45.7833L26.2344 48.9659C24.3363 50.5499 21.3475 50.0893 19.8103 48.2406Z" fill="url(#paint21_radial_6_404)"/>
<path d="M19.8103 48.2406C18.4593 46.6158 18.3276 44.025 19.8103 42.5195L23.3632 39.3544C25.0601 37.6314 27.7246 37.8037 29.3127 39.6274C30.7557 41.2842 30.8808 44.2444 29.3127 45.7833L26.2344 48.9659C24.3363 50.5499 21.3475 50.0893 19.8103 48.2406Z" fill="url(#paint22_radial_6_404)"/>
<path d="M14.606 43.7234C13.0416 42.159 12.3934 39.7169 13.9578 38.1525L19.2461 32.7678C20.8107 31.2034 23.3779 31.3699 25.0482 33.2813C26.3509 34.7723 26.6125 37.3821 25.0482 38.9467L20.2713 43.7234C19.0058 45.1812 16.1704 45.288 14.606 43.7234Z" fill="url(#paint23_linear_6_404)"/>
<path d="M14.606 43.7234C13.0416 42.159 12.3934 39.7169 13.9578 38.1525L19.2461 32.7678C20.8107 31.2034 23.3779 31.3699 25.0482 33.2813C26.3509 34.7723 26.6125 37.3821 25.0482 38.9467L20.2713 43.7234C19.0058 45.1812 16.1704 45.288 14.606 43.7234Z" fill="url(#paint24_linear_6_404)"/>
<path d="M14.606 43.7234C13.0416 42.159 12.3934 39.7169 13.9578 38.1525L19.2461 32.7678C20.8107 31.2034 23.3779 31.3699 25.0482 33.2813C26.3509 34.7723 26.6125 37.3821 25.0482 38.9467L20.2713 43.7234C19.0058 45.1812 16.1704 45.288 14.606 43.7234Z" fill="url(#paint25_radial_6_404)"/>
<path d="M14.606 43.7234C13.0416 42.159 12.3934 39.7169 13.9578 38.1525L19.2461 32.7678C20.8107 31.2034 23.3779 31.3699 25.0482 33.2813C26.3509 34.7723 26.6125 37.3821 25.0482 38.9467L20.2713 43.7234C19.0058 45.1812 16.1704 45.288 14.606 43.7234Z" fill="url(#paint26_radial_6_404)"/>
<path d="M21.0248 4.38047L21.0298 4.39267C19.585 5.09501 18.5894 6.57678 18.5894 8.29109C18.5894 10.6837 20.5289 12.6233 22.9216 12.6233C23.5042 12.6233 24.0597 12.5083 24.5672 12.2998C24.9765 12.1691 25.4121 12.028 25.865 11.8814L25.8723 11.8789C27.8447 11.2398 30.7503 10.2331 32.3349 9.91766C32.8263 9.81983 33.3117 10.0016 33.6887 10.3319L52.4956 26.7967C55.8994 23.8063 58.1729 19.7333 58.1729 15.0118C58.1729 6.77354 51.6495 0.0951538 43.1391 0.0951538C37.3035 0.383665 28.0341 1.60187 21.0248 4.38047Z" fill="#FBB439"/>
<path d="M21.0248 4.38047L21.0298 4.39267C19.585 5.09501 18.5894 6.57678 18.5894 8.29109C18.5894 10.6837 20.5289 12.6233 22.9216 12.6233C23.5042 12.6233 24.0597 12.5083 24.5672 12.2998C24.9765 12.1691 25.4121 12.028 25.865 11.8814L25.8723 11.8789C27.8447 11.2398 30.7503 10.2331 32.3349 9.91766C32.8263 9.81983 33.3117 10.0016 33.6887 10.3319L52.4956 26.7967C55.8994 23.8063 58.1729 19.7333 58.1729 15.0118C58.1729 6.77354 51.6495 0.0951538 43.1391 0.0951538C37.3035 0.383665 28.0341 1.60187 21.0248 4.38047Z" fill="url(#paint27_radial_6_404)"/>
<path d="M21.0248 4.38047L21.0298 4.39267C19.585 5.09501 18.5894 6.57678 18.5894 8.29109C18.5894 10.6837 20.5289 12.6233 22.9216 12.6233C23.5042 12.6233 24.0597 12.5083 24.5672 12.2998C24.9765 12.1691 25.4121 12.028 25.865 11.8814L25.8723 11.8789C27.8447 11.2398 30.7503 10.2331 32.3349 9.91766C32.8263 9.81983 33.3117 10.0016 33.6887 10.3319L52.4956 26.7967C55.8994 23.8063 58.1729 19.7333 58.1729 15.0118C58.1729 6.77354 51.6495 0.0951538 43.1391 0.0951538C37.3035 0.383665 28.0341 1.60187 21.0248 4.38047Z" fill="url(#paint28_radial_6_404)"/>
<path d="M21.0248 4.38047L21.0298 4.39267C19.585 5.09501 18.5894 6.57678 18.5894 8.29109C18.5894 10.6837 20.5289 12.6233 22.9216 12.6233C23.5042 12.6233 24.0597 12.5083 24.5672 12.2998C24.9765 12.1691 25.4121 12.028 25.865 11.8814L25.8723 11.8789C27.8447 11.2398 30.7503 10.2331 32.3349 9.91766C32.8263 9.81983 33.3117 10.0016 33.6887 10.3319L52.4956 26.7967C55.8994 23.8063 58.1729 19.7333 58.1729 15.0118C58.1729 6.77354 51.6495 0.0951538 43.1391 0.0951538C37.3035 0.383665 28.0341 1.60187 21.0248 4.38047Z" fill="url(#paint29_radial_6_404)"/>
<path d="M21.0248 4.38047L21.0298 4.39267C19.585 5.09501 18.5894 6.57678 18.5894 8.29109C18.5894 10.6837 20.5289 12.6233 22.9216 12.6233C23.5042 12.6233 24.0597 12.5083 24.5672 12.2998C24.9765 12.1691 25.4121 12.028 25.865 11.8814L25.8723 11.8789C27.8447 11.2398 30.7503 10.2331 32.3349 9.91766C32.8263 9.81983 33.3117 10.0016 33.6887 10.3319L52.4956 26.7967C55.8994 23.8063 58.1729 19.7333 58.1729 15.0118C58.1729 6.77354 51.6495 0.0951538 43.1391 0.0951538C37.3035 0.383665 28.0341 1.60187 21.0248 4.38047Z" fill="url(#paint30_radial_6_404)"/>
<path d="M34.6915 7.42352C31.9929 8.08395 28.7068 9.09145 26.3052 9.8815C24.8927 10.3462 23.3527 9.55927 22.9417 8.13001C22.5829 6.88193 23.215 5.56011 24.4412 5.13196C27.5224 4.0559 31.2802 3.07986 33.9672 2.53241C35.2567 2.26969 36.4598 3.14863 36.6917 4.4441C36.934 5.79812 36.0278 7.09654 34.6915 7.42352Z" fill="#FFE746"/>
<defs>
<linearGradient id="paint0_linear_6_404" x1="42.6591" y1="16.7801" x2="28.8281" y2="37.0742" gradientUnits="userSpaceOnUse">
<stop stop-color="#FFD741"/>
<stop offset="1" stop-color="#FFBE37"/>
</linearGradient>
<radialGradient id="paint1_radial_6_404" cx="0" cy="0" r="1" gradientUnits="userSpaceOnUse" gradientTransform="translate(37.2301 9.41223) rotate(122.645) scale(9.82472 13.6614)">
<stop stop-color="#FFDC38"/>
<stop offset="1" stop-color="#FFDC38" stop-opacity="0"/>
</radialGradient>
<radialGradient id="paint2_radial_6_404" cx="0" cy="0" r="1" gradientUnits="userSpaceOnUse" gradientTransform="translate(50.544 37.7205) rotate(-136.375) scale(5.71425 4.55999)">
<stop stop-color="#FFCB41"/>
<stop offset="1" stop-color="#FFCB41" stop-opacity="0"/>
</radialGradient>
<radialGradient id="paint3_radial_6_404" cx="0" cy="0" r="1" gradientUnits="userSpaceOnUse" gradientTransform="translate(51.9012 35.2645) rotate(-138.778) scale(9.70969 2.65249)">
<stop stop-color="#F48E5A"/>
<stop offset="1" stop-color="#F48E5A" stop-opacity="0"/>
</radialGradient>
<radialGradient id="paint4_radial_6_404" cx="0" cy="0" r="1" gradientUnits="userSpaceOnUse" gradientTransform="translate(46.5369 43.6665) rotate(-134.193) scale(12.9803 3.54596)">
<stop stop-color="#F48E5A"/>
<stop offset="1" stop-color="#F48E5A" stop-opacity="0"/>
</radialGradient>
<radialGradient id="paint5_radial_6_404" cx="0" cy="0" r="1" gradientUnits="userSpaceOnUse" gradientTransform="translate(37.4886 47.4798) rotate(-133.968) scale(10.1472 3.21751)">
<stop stop-color="#F48E5A"/>
<stop offset="1" stop-color="#F48E5A" stop-opacity="0"/>
</radialGradient>
<radialGradient id="paint6_radial_6_404" cx="0" cy="0" r="1" gradientUnits="userSpaceOnUse" gradientTransform="translate(30.4438 51.5515) rotate(-139.295) scale(11.5949 3.39869)">
<stop stop-color="#F48E5A"/>
<stop offset="1" stop-color="#F48E5A" stop-opacity="0"/>
</radialGradient>
<linearGradient id="paint7_linear_6_404" x1="32.0432" y1="45.684" x2="24.5347" y2="38.3161" gradientUnits="userSpaceOnUse">
<stop stop-color="#FFCD43"/>
<stop offset="1" stop-color="#FFCD43" stop-opacity="0"/>
</linearGradient>
<linearGradient id="paint8_linear_6_404" x1="51.1258" y1="29.2159" x2="32.3831" y2="12.9289" gradientUnits="userSpaceOnUse">
<stop stop-color="#FFE647"/>
<stop offset="1" stop-color="#FFE647" stop-opacity="0"/>
</linearGradient>
<linearGradient id="paint9_linear_6_404" x1="46.7424" y1="36.8159" x2="39.2337" y2="29.448" gradientUnits="userSpaceOnUse">
<stop stop-color="#FFD941"/>
<stop offset="1" stop-color="#FFD941" stop-opacity="0"/>
</linearGradient>
<linearGradient id="paint10_linear_6_404" x1="40.0129" y1="42.1295" x2="32.5044" y2="34.7616" gradientUnits="userSpaceOnUse">
<stop stop-color="#FFD63F"/>
<stop offset="1" stop-color="#FFD63F" stop-opacity="0"/>
</linearGradient>
<linearGradient id="paint11_linear_6_404" x1="11.8307" y1="23.2434" x2="2.84699" y2="31.9039" gradientUnits="userSpaceOnUse">
<stop stop-color="#FFBC41"/>
<stop offset="1" stop-color="#E69429"/>
</linearGradient>
<linearGradient id="paint12_linear_6_404" x1="11.0228" y1="31.5486" x2="9.01922" y2="29.4157" gradientUnits="userSpaceOnUse">
<stop stop-color="#E08407"/>
<stop offset="1" stop-color="#E08407" stop-opacity="0"/>
</linearGradient>
<radialGradient id="paint13_radial_6_404" cx="0" cy="0" r="1" gradientUnits="userSpaceOnUse" gradientTransform="translate(6.8541 34.9416) rotate(-88.8767) scale(6.5936 5.96247)">
<stop stop-color="#DA725B"/>
<stop offset="1" stop-color="#DA725B" stop-opacity="0"/>
</radialGradient>
<radialGradient id="paint14_radial_6_404" cx="0" cy="0" r="1" gradientUnits="userSpaceOnUse" gradientTransform="translate(13.5434 21.757) rotate(136.229) scale(5.32536 5.15025)">
<stop stop-color="#FFE43E"/>
<stop offset="1" stop-color="#FFE43E" stop-opacity="0"/>
</radialGradient>
<linearGradient id="paint15_linear_6_404" x1="18.0986" y1="28.4729" x2="8.06673" y2="38.142" gradientUnits="userSpaceOnUse">
<stop stop-color="#FFBC41"/>
<stop offset="1" stop-color="#E69429"/>
</linearGradient>
<linearGradient id="paint16_linear_6_404" x1="17.1966" y1="37.747" x2="14.9593" y2="35.3657" gradientUnits="userSpaceOnUse">
<stop stop-color="#E08407"/>
<stop offset="1" stop-color="#E08407" stop-opacity="0"/>
</linearGradient>
<radialGradient id="paint17_radial_6_404" cx="0" cy="0" r="1" gradientUnits="userSpaceOnUse" gradientTransform="translate(11.5711 41.2108) rotate(-83.0945) scale(8.60081 10.1639)">
<stop stop-color="#E8766E"/>
<stop offset="1" stop-color="#E8766E" stop-opacity="0"/>
</radialGradient>
<radialGradient id="paint18_radial_6_404" cx="0" cy="0" r="1" gradientUnits="userSpaceOnUse" gradientTransform="translate(19.3266 27.4443) rotate(136.026) scale(5.01534 4.85047)">
<stop stop-color="#FFE43E"/>
<stop offset="1" stop-color="#FFE43E" stop-opacity="0"/>
</radialGradient>
<linearGradient id="paint19_linear_6_404" x1="27.7568" y1="40.6218" x2="19.5856" y2="48.5096" gradientUnits="userSpaceOnUse">
<stop stop-color="#FFBC41"/>
<stop offset="1" stop-color="#E69429"/>
</linearGradient>
<linearGradient id="paint20_linear_6_404" x1="20.8783" y1="41.7924" x2="23.7843" y2="43.6707" gradientUnits="userSpaceOnUse">
<stop offset="0.155618" stop-color="#E08407"/>
<stop offset="1" stop-color="#E08407" stop-opacity="0"/>
</linearGradient>
<radialGradient id="paint21_radial_6_404" cx="0" cy="0" r="1" gradientUnits="userSpaceOnUse" gradientTransform="translate(22.3649 51.5517) rotate(-84.1036) scale(7.54957 8.93507)">
<stop stop-color="#E8766E"/>
<stop offset="1" stop-color="#E8766E" stop-opacity="0"/>
</radialGradient>
<radialGradient id="paint22_radial_6_404" cx="0" cy="0" r="1" gradientUnits="userSpaceOnUse" gradientTransform="translate(28.7587 39.7842) rotate(136.071) scale(4.08816 3.95352)">
<stop stop-color="#FFE43E"/>
<stop offset="1" stop-color="#FFE43E" stop-opacity="0"/>
</radialGradient>
<linearGradient id="paint23_linear_6_404" x1="23.1252" y1="34.4629" x2="13.9991" y2="43.2754" gradientUnits="userSpaceOnUse">
<stop stop-color="#FFBC41"/>
<stop offset="1" stop-color="#E69429"/>
</linearGradient>
<linearGradient id="paint24_linear_6_404" x1="22.8826" y1="43.4082" x2="20.9794" y2="41.3692" gradientUnits="userSpaceOnUse">
<stop stop-color="#E08407"/>
<stop offset="1" stop-color="#E08407" stop-opacity="0"/>
</linearGradient>
<radialGradient id="paint25_radial_6_404" cx="0" cy="0" r="1" gradientUnits="userSpaceOnUse" gradientTransform="translate(17.1764 46.0499) rotate(-83.0818) scale(7.82387 9.2625)">
<stop stop-color="#E8766E"/>
<stop offset="1" stop-color="#E8766E" stop-opacity="0"/>
</radialGradient>
<radialGradient id="paint26_radial_6_404" cx="0" cy="0" r="1" gradientUnits="userSpaceOnUse" gradientTransform="translate(24.2445 33.5275) rotate(136.08) scale(4.56657 4.41615)">
<stop stop-color="#FFE43E"/>
<stop offset="1" stop-color="#FFE43E" stop-opacity="0"/>
</radialGradient>
<radialGradient id="paint27_radial_6_404" cx="0" cy="0" r="1" gradientUnits="userSpaceOnUse" gradientTransform="translate(35.6057 23.1141) rotate(-33.6901) scale(25.084 39.4239)">
<stop offset="0.360862" stop-color="#FFE949" stop-opacity="0"/>
<stop offset="1" stop-color="#FFE949"/>
</radialGradient>
<radialGradient id="paint28_radial_6_404" cx="0" cy="0" r="1" gradientUnits="userSpaceOnUse" gradientTransform="translate(18.5894 9.96088) rotate(-21.4027) scale(8.93647 14.3501)">
<stop stop-color="#EE9226"/>
<stop offset="1" stop-color="#EE9226" stop-opacity="0"/>
</radialGradient>
<radialGradient id="paint29_radial_6_404" cx="0" cy="0" r="1" gradientUnits="userSpaceOnUse" gradientTransform="translate(34.6275 23.5488) rotate(-38.5505) scale(17.7915 16.9786)">
<stop stop-color="#F7A91E"/>
<stop offset="1" stop-color="#F7A91E" stop-opacity="0"/>
</radialGradient>
<radialGradient id="paint30_radial_6_404" cx="0" cy="0" r="1" gradientUnits="userSpaceOnUse" gradientTransform="translate(37.7798 19.853) rotate(-35.9316) scale(23.8962 37.3878)">
<stop offset="0.660528" stop-color="#FFEA49" stop-opacity="0"/>
<stop offset="1" stop-color="#FFEA49"/>
</radialGradient>
</defs>
</svg>
