<svg width="122" height="126" viewBox="0 0 122 126" fill="none" xmlns="http://www.w3.org/2000/svg">
<path d="M60.5353 121.071C100.9 121.071 121.071 93.9681 121.071 60.5353C121.071 27.1025 100.9 0 60.5353 0C20.1703 0 0 27.1025 0 60.5353C0 93.9681 20.1703 121.071 60.5353 121.071Z" fill="#FFB02E"/>
<path d="M34.5939 84.3236V71.0883C34.5939 67.6509 31.8073 64.8643 28.3699 64.8643C24.7342 64.8643 21.861 67.9696 21.8079 71.605C21.722 77.4921 20.9082 85.2819 17.2968 86.4857C4.32351 90.81 -0.000174999 110.269 10.8103 118.918C19.4592 125.837 28.1075 125.404 34.5939 125.404H46.5461C49.4978 125.404 51.8909 123.011 51.8909 120.059C51.8909 118.034 50.7471 116.184 48.9365 115.279L47.5666 114.594H50.6771C52.6615 114.594 54.3912 113.243 54.8725 111.318L55.1665 110.14C55.6993 108.009 54.0876 105.945 51.8909 105.945L53.3144 105.233C55.0921 104.344 56.2152 102.527 56.2152 100.54C56.2152 98.5522 55.0921 96.7352 53.3144 95.8461L51.8909 95.1343H59.4584C62.4439 95.1343 64.8637 92.7144 64.8637 89.729C64.8637 86.7435 62.4439 84.3236 59.4584 84.3236H34.5939Z" fill="#FFB02E"/>
<path d="M36.4056 61.5104C46.4505 61.5104 54.5935 53.3678 54.5935 43.3229C54.5935 33.2779 46.4505 25.1349 36.4056 25.1349C26.3608 25.1349 18.2178 33.2779 18.2178 43.3229C18.2178 53.3678 26.3608 61.5104 36.4056 61.5104Z" fill="white"/>
<path d="M84.6197 61.8421C94.7558 61.8421 102.973 53.625 102.973 43.4885C102.973 33.3521 94.7558 25.1349 84.6197 25.1349C74.4831 25.1349 66.2661 33.3521 66.2661 43.4885C66.2661 53.625 74.4831 61.8421 84.6197 61.8421Z" fill="white"/>
<path d="M34.5939 84.3236V71.0883C34.5939 67.6509 31.8073 64.8643 28.3699 64.8643C24.7342 64.8643 21.861 67.9696 21.8079 71.605C21.722 77.4921 20.9082 85.2819 17.2968 86.4857C4.32351 90.81 -0.000174999 110.269 10.8103 118.918C19.4592 125.837 28.1075 125.404 34.5939 125.404H46.5461C49.4978 125.404 51.8909 123.011 51.8909 120.059C51.8909 118.034 50.7471 116.184 48.9365 115.279L47.5666 114.594H50.6771C52.6615 114.594 54.3912 113.243 54.8725 111.318L55.1665 110.14C55.6993 108.009 54.0876 105.945 51.8909 105.945L53.3144 105.233C55.0921 104.344 56.2152 102.527 56.2152 100.54C56.2152 98.5522 55.0921 96.7352 53.3144 95.8461L51.8909 95.1343H59.4584C62.4439 95.1343 64.8637 92.7144 64.8637 89.729C64.8637 86.7435 62.4439 84.3236 59.4584 84.3236H34.5939Z" fill="#FF822D"/>
<path d="M22.2549 9.28187C23.9713 7.56538 28.6705 4.32429 34.5945 4.32429C40.5183 4.32429 45.2175 7.56538 46.9342 9.28187C47.7783 10.1262 47.7783 11.4952 46.9342 12.3396C46.0897 13.184 44.7206 13.184 43.8761 12.3396C42.7098 11.1732 39.0489 8.64857 34.5945 8.64857C30.1401 8.64857 26.479 11.1732 25.3126 12.3396C24.4682 13.184 23.0992 13.184 22.2549 12.3396C21.4105 11.4952 21.4105 10.1262 22.2549 9.28187Z" fill="#402A32"/>
<path d="M69.9664 26.4469C72.0019 24.7508 77.4924 21.6214 84.3235 21.6214C91.1546 21.6214 96.6451 24.7508 98.6806 26.4469C99.5978 27.2113 99.7219 28.5747 98.9573 29.492C98.1928 30.4094 96.8293 30.5333 95.9122 29.7689C94.4882 28.5821 89.9464 25.9457 84.3235 25.9457C78.7006 25.9457 74.1588 28.5821 72.7348 29.7689C71.8177 30.5333 70.4542 30.4094 69.6897 29.492C68.9251 28.5747 69.0493 27.2113 69.9664 26.4469Z" fill="#402A32"/>
<path d="M47.5673 41.0807C47.5673 48.2456 41.7594 54.0536 34.5944 54.0536C27.4297 54.0536 21.6216 48.2456 21.6216 41.0807C21.6216 33.916 27.4297 28.1079 34.5944 28.1079C41.7594 28.1079 47.5673 33.916 47.5673 41.0807Z" fill="#402A32"/>
<path d="M95.1342 41.0807C95.1342 48.2456 89.3262 54.0536 82.1613 54.0536C74.9964 54.0536 69.1885 48.2456 69.1885 41.0807C69.1885 33.916 74.9964 28.1079 82.1613 28.1079C89.3262 28.1079 95.1342 33.916 95.1342 41.0807Z" fill="#402A32"/>
<path d="M60.8921 73.4511C55.8319 72.5862 52.1592 75.0359 50.6246 76.5706C48.9359 78.2593 46.1978 78.2593 44.5092 76.5706C42.8205 74.882 42.8205 72.1438 44.5092 70.4552C47.2987 67.6656 53.6433 63.4378 62.3494 64.9262C70.838 66.3774 75.2094 71.2236 77.4347 76.0162C78.4405 78.1823 77.4996 80.7535 75.3335 81.7593C73.1675 82.7652 70.5963 81.8242 69.5904 79.6582C68.3766 77.0437 66.1699 74.3536 60.8921 73.4511Z" fill="#402A32"/>
</svg>
