<svg width="50" height="50" viewBox="0 0 50 50" fill="none" xmlns="http://www.w3.org/2000/svg">
<path d="M39.7547 36.5135L39.4784 19.7455C39.3016 18.1544 38.4286 16.0164 35.4452 16.0164C31.9645 16.1821 31.8265 19.7455 31.8265 19.7455L26.5225 10.2705C25.1966 8.25395 23.022 8.11361 21.6608 8.94454C20.2995 9.77549 20.0033 11.4584 20.0033 11.4584L18.8983 10.0219C18.0674 8.66058 15.5808 8.50204 14.3127 9.27606C12.208 10.5608 11.9022 13.2207 13.263 14.6903C13.1738 14.5939 12.1337 14.2338 10.3901 15.2982C9.02878 16.1291 8.60828 18.6132 9.36796 20.0219C10.1277 21.4305 10.2381 21.6516 10.2381 21.6516C10.2381 21.6516 9.06412 21.0991 7.2133 22.3421C5.88932 23.2314 5.4155 25.8705 6.24644 27.2317L10.7039 34.7473L16.8386 44.7715C20.4452 49.8835 28.135 51.6487 33.7225 48.2544C37.5323 45.9399 40.1175 41.0492 39.7547 36.5135Z" fill="#F59F00"/>
<path d="M20.1667 11.7209L20.0029 11.4575C20.0085 11.4264 20.1978 10.4015 20.9294 9.56509L21.6833 10.7782C22.2804 11.7389 23.0894 13.0396 23.9367 14.3995C25.6342 17.1237 27.4772 20.0727 28.0858 21.0132C28.3538 21.4271 28.2352 21.98 27.8213 22.2478C27.4072 22.5157 26.8545 22.3973 26.5867 21.9834C25.9676 21.0264 24.1136 18.0603 22.4211 15.3437C21.5733 13.9832 20.764 12.682 20.1667 11.7209Z" fill="#D67D00"/>
<path d="M13.1744 14.6405C13.0313 14.6016 12.8966 14.5757 12.771 14.5593C12.9563 14.5727 13.0919 14.6077 13.1744 14.6405Z" fill="#D67D00"/>
<path d="M13.2317 14.657C13.7315 14.803 14.3303 15.1079 15.0035 15.7063C15.0546 15.7518 15.174 15.887 15.3651 16.1555C15.5451 16.4086 15.7571 16.7346 15.9944 17.1191C16.4685 17.8873 17.0208 18.8521 17.5851 19.8591C17.8815 20.388 18.183 20.9316 18.4776 21.463C19.2873 22.9234 20.046 24.292 20.5112 25.0107C20.779 25.4246 21.3317 25.543 21.7458 25.2752C22.1597 25.0073 22.2781 24.4546 22.0103 24.0405C21.5808 23.377 20.8735 22.1011 20.0794 20.6687C19.7764 20.1223 19.4606 19.5529 19.1428 18.9859C18.5765 17.9755 18.009 16.9832 17.514 16.1813C17.2667 15.7805 17.0319 15.4182 16.8203 15.1205C16.6196 14.8386 16.4026 14.5607 16.1899 14.3716C14.7689 13.1085 13.4592 12.7585 12.4458 12.7504C12.4947 13.4568 12.7587 14.1303 13.2317 14.657Z" fill="#D67D00"/>
<path d="M10.1608 21.6223C9.96059 21.5786 9.77068 21.5489 9.59961 21.5305C9.87129 21.54 10.0624 21.5896 10.1608 21.6223Z" fill="#D67D00"/>
<path d="M10.231 21.638C10.2871 21.651 10.3439 21.6652 10.4012 21.6803C10.9826 21.8352 11.5184 22.0819 11.8792 22.4027C12.0601 22.5634 12.3339 22.8946 12.6866 23.3946C13.028 23.8785 13.4062 24.4666 13.7975 25.0969C14.1137 25.6064 14.4435 26.1523 14.7653 26.6848C15.2204 27.438 15.6592 28.1644 16.0195 28.7214C16.2876 29.1355 16.8402 29.2539 17.2544 28.986C17.6683 28.7182 17.7867 28.1653 17.5188 27.7514C17.1663 27.2066 16.759 26.5319 16.3217 25.8075C15.9992 25.2734 15.6601 24.7118 15.3147 24.1552C14.917 23.5146 14.5172 22.8918 14.1458 22.3653C13.7858 21.855 13.4122 21.3761 13.0655 21.068C12.4218 20.4959 11.5951 20.1503 10.8605 19.9548C10.2879 19.8023 9.71047 19.725 9.22949 19.7216C9.27017 19.8259 9.31621 19.9262 9.36764 20.0216C10.0286 21.2473 10.1982 21.5739 10.231 21.638Z" fill="#D67D00"/>
<path d="M49.9166 36.3778V19.4414C49.7381 17.8343 48.5774 15.6748 45.564 15.6748C42.0484 15.8421 41.909 19.4414 41.909 19.4414L36.5518 9.87125C35.2126 7.83439 33.0161 7.69264 31.6411 8.53193C30.2661 9.37121 29.967 11.071 29.967 11.071L28.851 9.6201C28.0117 8.24511 25.5001 8.08496 24.2192 8.86675C22.0933 10.1644 21.7844 12.851 23.159 14.3355C23.0688 14.2381 22.0183 13.8743 20.2572 14.9493C18.8822 15.7886 18.4574 18.2977 19.2247 19.7205C19.992 21.1434 20.1037 21.3666 20.1037 21.3666C20.1037 21.3666 18.9179 20.8085 17.0485 22.0643C15.7112 22.9623 15.2326 25.6278 16.0719 27.0028L20.574 34.5939L26.7704 44.7189C30.4135 49.8823 38.1804 51.6651 43.824 48.2367C47.6722 45.899 50.2832 40.9592 49.9166 36.3778Z" fill="#FFC83D"/>
<path d="M29.9727 11.0418L29.9959 11.0793C30.5932 12.0403 31.4027 13.3416 32.2503 14.7021C33.943 17.4187 35.7968 20.3848 36.4159 21.3416C36.6837 21.7557 37.2366 21.8741 37.6505 21.6062C38.0646 21.3384 38.183 20.7855 37.9151 20.3716C37.3066 19.431 35.4634 16.4821 33.7659 13.7578C32.9185 12.3979 32.1096 11.0973 31.5125 10.1366L30.9041 9.15744C30.2262 9.93151 30.0087 10.866 29.9727 11.0418Z" fill="#D67D00"/>
<path d="M23.0161 14.2663C22.7391 14.214 22.4974 14.1988 22.3066 14.2047C22.6356 14.1806 22.8749 14.2211 23.0161 14.2663Z" fill="#D67D00"/>
<path d="M25.3132 15.4394C24.5351 14.7478 23.7433 14.4214 23.1133 14.286C22.6537 13.767 22.3932 13.1093 22.3369 12.4182C23.4044 12.407 25.0091 12.7798 26.4996 14.1048C26.8669 14.4312 27.3328 15.0853 27.794 15.7853C28.2803 16.523 28.836 17.4298 29.3908 18.3559C29.8048 19.0471 30.2158 19.7446 30.6001 20.3967C31.2601 21.5167 31.8412 22.5026 32.2224 23.0919C32.4903 23.5058 32.3719 24.0587 31.9578 24.3266C31.5439 24.5944 30.991 24.476 30.7232 24.0619C30.323 23.4433 29.7057 22.3962 29.0276 21.2459C28.648 20.6017 28.2492 19.9251 27.8589 19.2735C27.3074 18.3528 26.7676 17.4728 26.3032 16.7682C25.8137 16.0257 25.4733 15.5818 25.3132 15.4394Z" fill="#D67D00"/>
<path d="M20.3107 21.4041C20.2297 21.371 20.1513 21.341 20.0756 21.3139C20.0107 21.1891 19.8059 20.8 19.2238 19.7205C19.1532 19.5894 19.0925 19.4493 19.042 19.3019C19.637 19.2941 20.3518 19.4932 20.9831 19.7496C21.7081 20.0443 22.4841 20.4807 23.0814 21.0116C23.4431 21.333 23.8227 21.8551 24.1793 22.4001C24.5506 22.9675 24.9502 23.6437 25.3466 24.3351C25.5873 24.755 25.8257 25.178 26.0577 25.5892C26.6048 26.5601 27.1157 27.4666 27.5348 28.1142C27.8027 28.5282 27.6843 29.081 27.2702 29.3489C26.8563 29.6167 26.3034 29.4984 26.0356 29.0842C25.5852 28.3882 25.0291 27.4019 24.4682 26.4067C24.2434 26.0076 24.0175 25.6071 23.7975 25.2235C23.4052 24.5392 23.0266 23.9 22.6852 23.378C22.3291 22.8341 22.0613 22.4939 21.8952 22.3462C21.4881 21.9844 20.9016 21.6441 20.3107 21.4041Z" fill="#D67D00"/>
<path d="M43.5772 22.3927C43.2695 21.8623 42.6499 20.7562 41.9092 19.4243C41.9181 19.2716 42.0072 18.1414 42.6949 17.1603C43.7615 19.0848 44.7197 20.8034 45.122 21.4968C45.3694 21.9234 45.2242 22.4698 44.7976 22.7171C44.371 22.9644 43.8247 22.8193 43.5772 22.3927Z" fill="#D67D00"/>
<path d="M10.8068 5.03048L8.62823 2.08129C8.28894 1.62047 8.50323 0.956881 9.03894 0.790989L11.4675 0.0352581C12.0032 -0.130634 12.5389 0.31174 12.5032 0.883149L12.2532 4.58812C12.1818 5.34386 11.2532 5.63877 10.8068 5.03048Z" fill="#46A4FB"/>
<path d="M6.59282 7.92696L3.2714 6.5341C2.75354 6.31982 2.61068 5.6591 3.00354 5.24839L4.73568 3.40911C5.11068 2.99839 5.78925 3.10554 6.03925 3.60553L7.62853 6.83767C7.9321 7.49839 7.27139 8.21267 6.59282 7.92696Z" fill="#46A4FB"/>
<path d="M0.928199 13.141L4.62726 12.6593C5.38558 12.5666 5.62603 11.5845 4.99717 11.1398L1.90845 9.06451C1.42757 8.74951 0.761735 9.0089 0.632271 9.56479L0.0219147 12.1219C-0.107549 12.6963 0.354843 13.2151 0.928199 13.141Z" fill="#46A4FB"/>
</svg>
