<svg width="36" height="50" viewBox="0 0 36 50" fill="none" xmlns="http://www.w3.org/2000/svg">
<path d="M17.6216 50C19.6261 50 21.2511 48.5762 21.2511 46.8198C21.2511 45.0634 19.6261 43.6396 17.6216 43.6396C15.6171 43.6396 13.9922 45.0634 13.9922 46.8198C13.9922 48.5762 15.6171 50 17.6216 50Z" fill="url(#paint0_radial_6_222)"/>
<path d="M22.0802 36.1865H13.3184C11.9056 36.1865 10.7603 37.19 10.7603 38.428V45.9932C10.7603 47.2312 11.9056 48.2347 13.3184 48.2347H22.0802C23.4931 48.2347 24.6384 47.2312 24.6384 45.9932V38.428C24.6384 37.19 23.4931 36.1865 22.0802 36.1865Z" fill="url(#paint1_linear_6_222)"/>
<path d="M22.0802 36.1865H13.3184C11.9056 36.1865 10.7603 37.19 10.7603 38.428V45.9932C10.7603 47.2312 11.9056 48.2347 13.3184 48.2347H22.0802C23.4931 48.2347 24.6384 47.2312 24.6384 45.9932V38.428C24.6384 37.19 23.4931 36.1865 22.0802 36.1865Z" fill="url(#paint2_linear_6_222)"/>
<path d="M22.0802 36.1865H13.3184C11.9056 36.1865 10.7603 37.19 10.7603 38.428V45.9932C10.7603 47.2312 11.9056 48.2347 13.3184 48.2347H22.0802C23.4931 48.2347 24.6384 47.2312 24.6384 45.9932V38.428C24.6384 37.19 23.4931 36.1865 22.0802 36.1865Z" fill="url(#paint3_radial_6_222)"/>
<path d="M22.0802 36.1865H13.3184C11.9056 36.1865 10.7603 37.19 10.7603 38.428V45.9932C10.7603 47.2312 11.9056 48.2347 13.3184 48.2347H22.0802C23.4931 48.2347 24.6384 47.2312 24.6384 45.9932V38.428C24.6384 37.19 23.4931 36.1865 22.0802 36.1865Z" fill="url(#paint4_linear_6_222)"/>
<path d="M17.4151 37.6153C17.4538 37.6153 17.4908 37.6155 17.5258 37.6155C18.6621 37.611 21.2792 37.5725 22.3283 37.4053C23.4539 37.226 23.5992 36.7343 23.7991 35.9623C25.032 31.2042 27.0992 29.3749 28.482 28.151C28.6953 27.9624 28.8924 27.7881 29.0673 27.6195C29.6676 27.0424 30.1872 26.5342 30.5838 26.1419C33.5694 23.3656 35.399 19.6244 35.399 15.5087C35.399 6.94347 27.4745 0 17.6994 0C7.92443 0 0 6.94347 0 15.5087C0 19.5742 1.78531 23.2743 4.70643 26.04C5.11425 26.4442 5.6722 26.9911 6.32587 27.6195C6.43945 27.7289 6.56245 27.8408 6.69302 27.9573C6.76363 28.0203 6.83628 28.0848 6.91118 28.151C8.29404 29.3749 10.3613 31.2042 11.5941 35.9623C11.7943 36.7343 11.9396 37.226 13.0652 37.4053C14.1118 37.5721 16.2302 37.6103 17.3021 37.615C17.3371 37.615 17.375 37.6153 17.4151 37.6153Z" fill="url(#paint5_radial_6_222)"/>
<path d="M17.4151 37.6153C17.4538 37.6153 17.4908 37.6155 17.5258 37.6155C18.6621 37.611 21.2792 37.5725 22.3283 37.4053C23.4539 37.226 23.5992 36.7343 23.7991 35.9623C25.032 31.2042 27.0992 29.3749 28.482 28.151C28.6953 27.9624 28.8924 27.7881 29.0673 27.6195C29.6676 27.0424 30.1872 26.5342 30.5838 26.1419C33.5694 23.3656 35.399 19.6244 35.399 15.5087C35.399 6.94347 27.4745 0 17.6994 0C7.92443 0 0 6.94347 0 15.5087C0 19.5742 1.78531 23.2743 4.70643 26.04C5.11425 26.4442 5.6722 26.9911 6.32587 27.6195C6.43945 27.7289 6.56245 27.8408 6.69302 27.9573C6.76363 28.0203 6.83628 28.0848 6.91118 28.151C8.29404 29.3749 10.3613 31.2042 11.5941 35.9623C11.7943 36.7343 11.9396 37.226 13.0652 37.4053C14.1118 37.5721 16.2302 37.6103 17.3021 37.615C17.3371 37.615 17.375 37.6153 17.4151 37.6153Z" fill="url(#paint6_radial_6_222)"/>
<path d="M20.8829 14.8637C24.6447 14.8637 27.6941 12.1917 27.6941 8.89564C27.6941 5.59956 24.6447 2.92755 20.8829 2.92755C17.1212 2.92755 14.0718 5.59956 14.0718 8.89564C14.0718 12.1917 17.1212 14.8637 20.8829 14.8637Z" fill="url(#paint7_linear_6_222)"/>
<path d="M16.8246 37.611C16.7528 33.7159 16.3985 31.1509 15.8593 29.3655C15.2377 27.3076 14.3684 26.2821 13.4484 25.4688L13.437 25.4586L13.4249 25.4487C12.2467 24.472 11.5138 23.0919 11.5138 21.5603C11.5138 18.6047 14.2484 16.2086 17.6216 16.2086C20.9947 16.2086 23.7293 18.6047 23.7293 21.5603C23.7293 23.0919 22.9962 24.472 21.8182 25.4487L21.8061 25.4586L21.7945 25.4688C20.8913 26.2675 20.0101 27.2257 19.3812 29.2665C18.8368 31.0322 18.4807 33.6062 18.4099 37.6072C19.0271 37.5984 19.7653 37.5819 20.4579 37.5525C20.5309 33.665 20.8793 31.2837 21.3569 29.734C21.8743 28.055 22.5396 27.3587 23.2371 26.7409C24.7994 25.4403 25.7758 23.5994 25.7758 21.5603C25.7758 17.6143 22.125 14.4153 17.6216 14.4153C13.1181 14.4153 9.46729 17.6143 9.46729 21.5603C9.46729 23.5994 10.4435 25.4401 12.0058 26.7408C12.6873 27.3449 13.3598 28.0995 13.8809 29.8242C14.3569 31.3999 14.7024 33.7767 14.7767 37.5536C15.4854 37.5879 16.2328 37.6042 16.8246 37.611Z" fill="#FFAD55"/>
<path d="M19.69 37.2027C19.69 28.647 21.1862 27.2823 22.7911 25.8633C24.165 24.7245 25.0223 23.1118 25.0223 21.3238C25.0223 17.8729 21.8296 15.0754 17.8913 15.0754C13.9529 15.0754 10.7603 17.8729 10.7603 21.3238C10.7603 23.1118 11.6176 24.7245 12.9914 25.8633C14.5963 27.2823 16.0846 29.7385 16.0846 37.2027" stroke="url(#paint8_linear_6_222)" stroke-width="1.74989"/>
<path d="M23.2738 39.7359L11.6666 41.3295C11.0689 41.4115 10.6604 41.9025 10.754 42.4262C10.8477 42.9498 11.408 43.3078 12.0056 43.2258L23.6128 41.6322C24.2105 41.5502 24.619 41.0591 24.5254 40.5355C24.4317 40.0119 23.8714 39.6539 23.2738 39.7359Z" fill="#7E6693"/>
<path d="M23.2738 43.9881L11.6666 45.5817C11.0689 45.6637 10.6604 46.1547 10.754 46.6784C10.8477 47.202 11.408 47.56 12.0056 47.478L23.6128 45.8844C24.2105 45.8024 24.619 45.3113 24.5254 44.7877C24.4317 44.2641 23.8714 43.9061 23.2738 43.9881Z" fill="#7E6693"/>
<path d="M24.7679 43.518L10.173 45.5218C9.55778 45.6062 9.13722 46.1117 9.23361 46.6507L9.23361 46.6507C9.33 47.1897 9.90683 47.5582 10.522 47.4738L25.1169 45.47C25.7321 45.3856 26.1527 44.8801 26.0563 44.3411C25.9599 43.8021 25.3831 43.4336 24.7679 43.518Z" fill="url(#paint9_linear_6_222)"/>
<path d="M24.7679 43.518L10.173 45.5218C9.55778 45.6062 9.13722 46.1117 9.23361 46.6507L9.23361 46.6507C9.33 47.1897 9.90683 47.5582 10.522 47.4738L25.1169 45.47C25.7321 45.3856 26.1527 44.8801 26.0563 44.3411C25.9599 43.8021 25.3831 43.4336 24.7679 43.518Z" fill="url(#paint10_linear_6_222)"/>
<path d="M24.7679 43.518L10.173 45.5218C9.55778 45.6062 9.13722 46.1117 9.23361 46.6507L9.23361 46.6507C9.33 47.1897 9.90683 47.5582 10.522 47.4738L25.1169 45.47C25.7321 45.3856 26.1527 44.8801 26.0563 44.3411C25.9599 43.8021 25.3831 43.4336 24.7679 43.518Z" fill="url(#paint11_linear_6_222)"/>
<path d="M24.7679 43.518L10.173 45.5218C9.55778 45.6062 9.13722 46.1117 9.23361 46.6507L9.23361 46.6507C9.33 47.1897 9.90683 47.5582 10.522 47.4738L25.1169 45.47C25.7321 45.3856 26.1527 44.8801 26.0563 44.3411C25.9599 43.8021 25.3831 43.4336 24.7679 43.518Z" fill="url(#paint12_radial_6_222)"/>
<path d="M24.7679 39.2562L10.173 41.2599C9.55778 41.3444 9.13722 41.8498 9.23361 42.3888L9.23361 42.3888C9.33 42.9279 9.90683 43.2964 10.522 43.2119L25.1169 41.2082C25.7321 41.1237 26.1527 40.6183 26.0563 40.0793C25.9599 39.5402 25.3831 39.1717 24.7679 39.2562Z" fill="url(#paint13_linear_6_222)"/>
<path d="M24.7679 39.2562L10.173 41.2599C9.55778 41.3444 9.13722 41.8498 9.23361 42.3888L9.23361 42.3888C9.33 42.9279 9.90683 43.2964 10.522 43.2119L25.1169 41.2082C25.7321 41.1237 26.1527 40.6183 26.0563 40.0793C25.9599 39.5402 25.3831 39.1717 24.7679 39.2562Z" fill="url(#paint14_linear_6_222)"/>
<path d="M24.7679 39.2562L10.173 41.2599C9.55778 41.3444 9.13722 41.8498 9.23361 42.3888L9.23361 42.3888C9.33 42.9279 9.90683 43.2964 10.522 43.2119L25.1169 41.2082C25.7321 41.1237 26.1527 40.6183 26.0563 40.0793C25.9599 39.5402 25.3831 39.1717 24.7679 39.2562Z" fill="url(#paint15_linear_6_222)"/>
<path d="M24.7679 39.2562L10.173 41.2599C9.55778 41.3444 9.13722 41.8498 9.23361 42.3888L9.23361 42.3888C9.33 42.9279 9.90683 43.2964 10.522 43.2119L25.1169 41.2082C25.7321 41.1237 26.1527 40.6183 26.0563 40.0793C25.9599 39.5402 25.3831 39.1717 24.7679 39.2562Z" fill="url(#paint16_radial_6_222)"/>
<defs>
<radialGradient id="paint0_radial_6_222" cx="0" cy="0" r="1" gradientUnits="userSpaceOnUse" gradientTransform="translate(18.5808 48.627) rotate(97.5841) scale(1.69599 4.46499)">
<stop offset="0.267752" stop-color="#AC90C6"/>
<stop offset="1" stop-color="#8E6AAA"/>
</radialGradient>
<linearGradient id="paint1_linear_6_222" x1="24.6385" y1="42.6952" x2="10.7603" y2="42.6952" gradientUnits="userSpaceOnUse">
<stop stop-color="#CDC2D1"/>
<stop offset="1" stop-color="#947C8D"/>
</linearGradient>
<linearGradient id="paint2_linear_6_222" x1="10.0751" y1="43.6115" x2="13.4648" y2="43.6115" gradientUnits="userSpaceOnUse">
<stop stop-color="#8A7B88"/>
<stop offset="1" stop-color="#8A7B88" stop-opacity="0"/>
</linearGradient>
<radialGradient id="paint3_radial_6_222" cx="0" cy="0" r="1" gradientUnits="userSpaceOnUse" gradientTransform="translate(20.5612 37.0266) rotate(88.4435) scale(1.47931 7.51515)">
<stop offset="0.228769" stop-color="#EDE2EB"/>
<stop offset="1" stop-color="#C8BCCB" stop-opacity="0"/>
</radialGradient>
<linearGradient id="paint4_linear_6_222" x1="20.8835" y1="48.2347" x2="20.8835" y2="45.9651" gradientUnits="userSpaceOnUse">
<stop stop-color="#7E5F9E"/>
<stop offset="1" stop-color="#7E5F9E" stop-opacity="0"/>
</linearGradient>
<radialGradient id="paint5_radial_6_222" cx="0" cy="0" r="1" gradientUnits="userSpaceOnUse" gradientTransform="translate(25.1685 10.9971) rotate(141.793) scale(19.208 15.4841)">
<stop offset="0.286168" stop-color="#FFEC87"/>
<stop offset="1" stop-color="#FFCD4B"/>
</radialGradient>
<radialGradient id="paint6_radial_6_222" cx="0" cy="0" r="1" gradientUnits="userSpaceOnUse" gradientTransform="translate(27.0871 20.5237) rotate(-150.927) scale(28.8308 26.0342)">
<stop offset="0.622387" stop-color="#FFB239" stop-opacity="0"/>
<stop offset="1" stop-color="#FFB239"/>
</radialGradient>
<linearGradient id="paint7_linear_6_222" x1="18.501" y1="10.8221" x2="24.7851" y2="5.23362" gradientUnits="userSpaceOnUse">
<stop stop-color="white" stop-opacity="0"/>
<stop offset="0.594121" stop-color="white"/>
</linearGradient>
<linearGradient id="paint8_linear_6_222" x1="25.5036" y1="16.148" x2="18.9834" y2="33.8761" gradientUnits="userSpaceOnUse">
<stop stop-color="#FFBF5C"/>
<stop offset="1" stop-color="#FFBF5C" stop-opacity="0"/>
</linearGradient>
<linearGradient id="paint9_linear_6_222" x1="17.2697" y1="44.5643" x2="17.6917" y2="46.7176" gradientUnits="userSpaceOnUse">
<stop stop-color="#B1969A"/>
<stop offset="1" stop-color="#DAD2E2"/>
</linearGradient>
<linearGradient id="paint10_linear_6_222" x1="19.5721" y1="46.1895" x2="19.3745" y2="44.7803" gradientUnits="userSpaceOnUse">
<stop stop-color="#8A68A9"/>
<stop offset="1" stop-color="#DEC2E3" stop-opacity="0"/>
</linearGradient>
<linearGradient id="paint11_linear_6_222" x1="9.05897" y1="46.8059" x2="14.5759" y2="45.4728" gradientUnits="userSpaceOnUse">
<stop stop-color="#958387"/>
<stop offset="1" stop-color="#958387" stop-opacity="0"/>
</linearGradient>
<radialGradient id="paint12_radial_6_222" cx="0" cy="0" r="1" gradientUnits="userSpaceOnUse" gradientTransform="translate(23.1216 44.4269) rotate(80.2258) scale(1.50689 10.111)">
<stop offset="0.126697" stop-color="#FCF0FC"/>
<stop offset="1" stop-color="#E5C9E3" stop-opacity="0"/>
</radialGradient>
<linearGradient id="paint13_linear_6_222" x1="17.2697" y1="40.3025" x2="17.6917" y2="42.4558" gradientUnits="userSpaceOnUse">
<stop stop-color="#B1969A"/>
<stop offset="1" stop-color="#DAD2E2"/>
</linearGradient>
<linearGradient id="paint14_linear_6_222" x1="19.5721" y1="41.9276" x2="19.3745" y2="40.5185" gradientUnits="userSpaceOnUse">
<stop stop-color="#8A68A9"/>
<stop offset="1" stop-color="#DEC2E3" stop-opacity="0"/>
</linearGradient>
<linearGradient id="paint15_linear_6_222" x1="9.05897" y1="42.544" x2="14.5759" y2="41.2109" gradientUnits="userSpaceOnUse">
<stop stop-color="#958387"/>
<stop offset="1" stop-color="#958387" stop-opacity="0"/>
</linearGradient>
<radialGradient id="paint16_radial_6_222" cx="0" cy="0" r="1" gradientUnits="userSpaceOnUse" gradientTransform="translate(23.1216 40.165) rotate(80.2258) scale(1.50689 10.111)">
<stop offset="0.126697" stop-color="#FCF0FC"/>
<stop offset="1" stop-color="#E5C9E3" stop-opacity="0"/>
</radialGradient>
</defs>
</svg>
