<svg width="60" height="60" viewBox="0 0 60 60" fill="none" xmlns="http://www.w3.org/2000/svg">
<rect width="60" height="60" rx="15" fill="white"/>
<path d="M19.7812 23.5156H40.0938C40.5252 23.5156 40.875 23.1659 40.875 22.7344V20.7812C40.875 20.3498 40.5252 20 40.0938 20H19.7812C19.3498 20 19 20.3498 19 20.7812V22.7344C19 23.1659 19.3498 23.5156 19.7812 23.5156ZM19.7812 31.3281H40.0938C40.5252 31.3281 40.875 30.9784 40.875 30.5469V28.5938C40.875 28.1623 40.5252 27.8125 40.0938 27.8125H19.7812C19.3498 27.8125 19 28.1623 19 28.5938V30.5469C19 30.9784 19.3498 31.3281 19.7812 31.3281ZM19.7812 39.1406H40.0938C40.5252 39.1406 40.875 38.7909 40.875 38.3594V36.4062C40.875 35.9748 40.5252 35.625 40.0938 35.625H19.7812C19.3498 35.625 19 35.9748 19 36.4062V38.3594C19 38.7909 19.3498 39.1406 19.7812 39.1406Z" fill="#373737"/>
</svg>
