<svg width="38" height="50" viewBox="0 0 38 50" fill="none" xmlns="http://www.w3.org/2000/svg">
<path d="M12.6935 12.2171C15.4505 7.91577 17.0822 3.9434 17.9337 1.135C18.2601 0.0586366 19.6385 -0.382267 20.4566 0.389418C32.7867 12.0175 36.8166 20.8951 37.6207 31.155C38.2094 41.0788 33.3317 49.9092 20.2402 49.9092C7.94927 49.9092 -1.1211 41.331 0.1123 27.735C0.849412 19.6095 4.00833 13.4194 6.53387 9.73446C7.31987 8.58766 8.95739 8.57103 9.86324 9.62579L12.1222 12.2564C12.2779 12.4377 12.5645 12.4182 12.6935 12.2171Z" fill="url(#paint0_radial_6_73)"/>
<path d="M12.6935 12.2171C15.4505 7.91577 17.0822 3.9434 17.9337 1.135C18.2601 0.0586366 19.6385 -0.382267 20.4566 0.389418C32.7867 12.0175 36.8166 20.8951 37.6207 31.155C38.2094 41.0788 33.3317 49.9092 20.2402 49.9092C7.94927 49.9092 -1.1211 41.331 0.1123 27.735C0.849412 19.6095 4.00833 13.4194 6.53387 9.73446C7.31987 8.58766 8.95739 8.57103 9.86324 9.62579L12.1222 12.2564C12.2779 12.4377 12.5645 12.4182 12.6935 12.2171Z" fill="url(#paint1_radial_6_73)"/>
<path d="M12.6935 12.2171C15.4505 7.91577 17.0822 3.9434 17.9337 1.135C18.2601 0.0586366 19.6385 -0.382267 20.4566 0.389418C32.7867 12.0175 36.8166 20.8951 37.6207 31.155C38.2094 41.0788 33.3317 49.9092 20.2402 49.9092C7.94927 49.9092 -1.1211 41.331 0.1123 27.735C0.849412 19.6095 4.00833 13.4194 6.53387 9.73446C7.31987 8.58766 8.95739 8.57103 9.86324 9.62579L12.1222 12.2564C12.2779 12.4377 12.5645 12.4182 12.6935 12.2171Z" fill="url(#paint2_linear_6_73)"/>
<path d="M12.6935 12.2171C15.4505 7.91577 17.0822 3.9434 17.9337 1.135C18.2601 0.0586366 19.6385 -0.382267 20.4566 0.389418C32.7867 12.0175 36.8166 20.8951 37.6207 31.155C38.2094 41.0788 33.3317 49.9092 20.2402 49.9092C7.94927 49.9092 -1.1211 41.331 0.1123 27.735C0.849412 19.6095 4.00833 13.4194 6.53387 9.73446C7.31987 8.58766 8.95739 8.57103 9.86324 9.62579L12.1222 12.2564C12.2779 12.4377 12.5645 12.4182 12.6935 12.2171Z" fill="url(#paint3_radial_6_73)"/>
<path d="M12.6935 12.2171C15.4505 7.91577 17.0822 3.9434 17.9337 1.135C18.2601 0.0586366 19.6385 -0.382267 20.4566 0.389418C32.7867 12.0175 36.8166 20.8951 37.6207 31.155C38.2094 41.0788 33.3317 49.9092 20.2402 49.9092C7.94927 49.9092 -1.1211 41.331 0.1123 27.735C0.849412 19.6095 4.00833 13.4194 6.53387 9.73446C7.31987 8.58766 8.95739 8.57103 9.86324 9.62579L12.1222 12.2564C12.2779 12.4377 12.5645 12.4182 12.6935 12.2171Z" fill="url(#paint4_radial_6_73)"/>
<path d="M12.6935 12.2171C15.4505 7.91577 17.0822 3.9434 17.9337 1.135C18.2601 0.0586366 19.6385 -0.382267 20.4566 0.389418C32.7867 12.0175 36.8166 20.8951 37.6207 31.155C38.2094 41.0788 33.3317 49.9092 20.2402 49.9092C7.94927 49.9092 -1.1211 41.331 0.1123 27.735C0.849412 19.6095 4.00833 13.4194 6.53387 9.73446C7.31987 8.58766 8.95739 8.57103 9.86324 9.62579L12.1222 12.2564C12.2779 12.4377 12.5645 12.4182 12.6935 12.2171Z" fill="url(#paint5_radial_6_73)"/>
<path d="M12.6935 12.2171C15.4505 7.91577 17.0822 3.9434 17.9337 1.135C18.2601 0.0586366 19.6385 -0.382267 20.4566 0.389418C32.7867 12.0175 36.8166 20.8951 37.6207 31.155C38.2094 41.0788 33.3317 49.9092 20.2402 49.9092C7.94927 49.9092 -1.1211 41.331 0.1123 27.735C0.849412 19.6095 4.00833 13.4194 6.53387 9.73446C7.31987 8.58766 8.95739 8.57103 9.86324 9.62579L12.1222 12.2564C12.2779 12.4377 12.5645 12.4182 12.6935 12.2171Z" fill="url(#paint6_radial_6_73)"/>
<path d="M12.6935 12.2171C15.4505 7.91577 17.0822 3.9434 17.9337 1.135C18.2601 0.0586366 19.6385 -0.382267 20.4566 0.389418C32.7867 12.0175 36.8166 20.8951 37.6207 31.155C38.2094 41.0788 33.3317 49.9092 20.2402 49.9092C7.94927 49.9092 -1.1211 41.331 0.1123 27.735C0.849412 19.6095 4.00833 13.4194 6.53387 9.73446C7.31987 8.58766 8.95739 8.57103 9.86324 9.62579L12.1222 12.2564C12.2779 12.4377 12.5645 12.4182 12.6935 12.2171Z" fill="url(#paint7_radial_6_73)"/>
<path d="M8.42926 31.8477C10.7657 26.2872 15.5602 20.1341 18.7978 16.7961C19.7126 15.853 21.1913 15.8361 22.1576 16.7265C28.3674 22.4479 30.2367 27.6204 31.8231 33.6418C33.4733 39.9063 31.8231 50 19.4049 50C8.71075 50 5.00607 39.9939 8.42926 31.8477Z" fill="url(#paint8_radial_6_73)"/>
<path d="M8.42926 31.8477C10.7657 26.2872 15.5602 20.1341 18.7978 16.7961C19.7126 15.853 21.1913 15.8361 22.1576 16.7265C28.3674 22.4479 30.2367 27.6204 31.8231 33.6418C33.4733 39.9063 31.8231 50 19.4049 50C8.71075 50 5.00607 39.9939 8.42926 31.8477Z" fill="url(#paint9_radial_6_73)"/>
<path d="M8.42926 31.8477C10.7657 26.2872 15.5602 20.1341 18.7978 16.7961C19.7126 15.853 21.1913 15.8361 22.1576 16.7265C28.3674 22.4479 30.2367 27.6204 31.8231 33.6418C33.4733 39.9063 31.8231 50 19.4049 50C8.71075 50 5.00607 39.9939 8.42926 31.8477Z" fill="url(#paint10_radial_6_73)"/>
<path d="M8.42926 31.8477C10.7657 26.2872 15.5602 20.1341 18.7978 16.7961C19.7126 15.853 21.1913 15.8361 22.1576 16.7265C28.3674 22.4479 30.2367 27.6204 31.8231 33.6418C33.4733 39.9063 31.8231 50 19.4049 50C8.71075 50 5.00607 39.9939 8.42926 31.8477Z" fill="url(#paint11_linear_6_73)"/>
<path d="M8.42926 31.8477C10.7657 26.2872 15.5602 20.1341 18.7978 16.7961C19.7126 15.853 21.1913 15.8361 22.1576 16.7265C28.3674 22.4479 30.2367 27.6204 31.8231 33.6418C33.4733 39.9063 31.8231 50 19.4049 50C8.71075 50 5.00607 39.9939 8.42926 31.8477Z" fill="url(#paint12_radial_6_73)"/>
<path d="M11.3627 16.8876C15.5168 10.8056 17.946 4.22643 18.6879 2.60291C17.606 10.9183 14.4534 17.0064 8.51901 24.8465C3.77149 31.1187 2.9143 36.4881 2.95553 37.7948C1.47192 27.8165 6.16999 24.4902 11.3627 16.8876Z" fill="url(#paint13_linear_6_73)"/>
<path d="M7.77488 10.3135C5.44242 13.2086 0.80625 21.2389 0.921038 30.1994C3.22009 21.0092 8.59217 18.113 7.77488 10.3135Z" fill="url(#paint14_linear_6_73)"/>
<defs>
<radialGradient id="paint0_radial_6_73" cx="0" cy="0" r="1" gradientUnits="userSpaceOnUse" gradientTransform="translate(33.2305 31.5662) rotate(-179.474) scale(30.6772 46.2632)">
<stop stop-color="#FF953D"/>
<stop offset="1" stop-color="#FF5141"/>
</radialGradient>
<radialGradient id="paint1_radial_6_73" cx="0" cy="0" r="1" gradientUnits="userSpaceOnUse" gradientTransform="translate(8.77691 24.2729) rotate(-157.937) scale(18.5585 32.0241)">
<stop stop-color="#CE5327"/>
<stop offset="1" stop-color="#CE5327" stop-opacity="0"/>
</radialGradient>
<linearGradient id="paint2_linear_6_73" x1="23.0652" y1="49.9092" x2="23.0652" y2="40.7619" gradientUnits="userSpaceOnUse">
<stop stop-color="#FF7583"/>
<stop offset="1" stop-color="#FF7583" stop-opacity="0"/>
</linearGradient>
<radialGradient id="paint3_radial_6_73" cx="0" cy="0" r="1" gradientUnits="userSpaceOnUse" gradientTransform="translate(-0.938622 22.0061) rotate(24.0149) scale(5.5701 46.1072)">
<stop stop-color="#FFAA7B"/>
<stop offset="1" stop-color="#FFAA7B" stop-opacity="0"/>
</radialGradient>
<radialGradient id="paint4_radial_6_73" cx="0" cy="0" r="1" gradientUnits="userSpaceOnUse" gradientTransform="translate(6.87141 7.40114) rotate(77.3196) scale(6.89003 8.59717)">
<stop stop-color="#FF5E47"/>
<stop offset="1" stop-color="#FF5E47" stop-opacity="0"/>
</radialGradient>
<radialGradient id="paint5_radial_6_73" cx="0" cy="0" r="1" gradientUnits="userSpaceOnUse" gradientTransform="translate(19.6431 -1.36331) rotate(87.8819) scale(18.1877 16.8346)">
<stop stop-color="#FF2F3C"/>
<stop offset="1" stop-color="#FF2F3C" stop-opacity="0"/>
</radialGradient>
<radialGradient id="paint6_radial_6_73" cx="0" cy="0" r="1" gradientUnits="userSpaceOnUse" gradientTransform="translate(15.1058 4.79638) rotate(25.3285) scale(4.12458 8.27719)">
<stop stop-color="#FF846C"/>
<stop offset="1" stop-color="#FF846C" stop-opacity="0"/>
</radialGradient>
<radialGradient id="paint7_radial_6_73" cx="0" cy="0" r="1" gradientUnits="userSpaceOnUse" gradientTransform="translate(12.5182 10.9152) rotate(113.224) scale(4.08766 0.936736)">
<stop stop-color="#FFA682"/>
<stop offset="1" stop-color="#FFA682" stop-opacity="0"/>
</radialGradient>
<radialGradient id="paint8_radial_6_73" cx="0" cy="0" r="1" gradientUnits="userSpaceOnUse" gradientTransform="translate(28.2119 39.9199) rotate(-168.558) scale(17.9934 22.4069)">
<stop stop-color="#FFDA2F"/>
<stop offset="1" stop-color="#FF8E41"/>
</radialGradient>
<radialGradient id="paint9_radial_6_73" cx="0" cy="0" r="1" gradientUnits="userSpaceOnUse" gradientTransform="translate(12.4178 11.6024) rotate(69.0442) scale(25.3733 22.0459)">
<stop stop-color="#FD5639"/>
<stop offset="1" stop-color="#FE5533" stop-opacity="0"/>
</radialGradient>
<radialGradient id="paint10_radial_6_73" cx="0" cy="0" r="1" gradientUnits="userSpaceOnUse" gradientTransform="translate(24.6854 33.1969) rotate(174.239) scale(17.5799 43.0433)">
<stop offset="0.627719" stop-color="#D7812D" stop-opacity="0"/>
<stop offset="1" stop-color="#D7812D"/>
</radialGradient>
<linearGradient id="paint11_linear_6_73" x1="19.776" y1="15.2257" x2="19.776" y2="21.7694" gradientUnits="userSpaceOnUse">
<stop stop-color="#F95131"/>
<stop offset="1" stop-color="#F95131" stop-opacity="0"/>
</linearGradient>
<radialGradient id="paint12_radial_6_73" cx="0" cy="0" r="1" gradientUnits="userSpaceOnUse" gradientTransform="translate(31.4074 29.9197) rotate(143.063) scale(28.8038 20.843)">
<stop offset="0.772305" stop-color="#F18A52" stop-opacity="0"/>
<stop offset="1" stop-color="#F18A52"/>
</radialGradient>
<linearGradient id="paint13_linear_6_73" x1="17.0716" y1="3.82053" x2="3.90237" y2="36.9699" gradientUnits="userSpaceOnUse">
<stop stop-color="#FF7558"/>
<stop offset="1" stop-color="#F38758"/>
</linearGradient>
<linearGradient id="paint14_linear_6_73" x1="7.28564" y1="10.797" x2="0.182937" y2="31.1343" gradientUnits="userSpaceOnUse">
<stop stop-color="#FF815B"/>
<stop offset="1" stop-color="#FF9C6D"/>
</linearGradient>
</defs>
</svg>
