<svg width="40" height="50" viewBox="0 0 40 50" fill="none" xmlns="http://www.w3.org/2000/svg">
<path d="M13.217 5.9127C13.217 2.6472 15.8642 0 19.1297 0C22.3951 0 25.0425 2.6472 25.0425 5.9127V12.717C25.0425 13.2973 25.0022 13.8759 24.9125 14.4543C24.8797 14.6656 24.847 14.8765 24.8267 15.0872C24.7622 15.7533 24.8409 16.6232 25.2936 17.2075L24.2125 18.2505C29.6338 21.0201 33.3485 26.6839 33.3485 33.221C33.3485 34.992 33.0758 36.6988 32.5706 38.3015L30.7789 50H16.2126V49.995C7.21711 49.8013 0 43.9353 0 33.221C0 26.9227 3.01575 21.8524 7.57816 18.9935L7.56686 18.9845C7.87766 18.7685 8.24416 18.5487 8.63707 18.3131L8.63995 18.3113C9.93394 17.5357 11.5153 16.5876 12.3497 15.0372C13.0732 13.6931 13.2136 11.5116 13.2136 10.5002L13.217 10.5018V5.9127Z" fill="url(#paint0_linear_6_274)"/>
<path d="M13.217 5.9127C13.217 2.6472 15.8642 0 19.1297 0C22.3951 0 25.0425 2.6472 25.0425 5.9127V12.717C25.0425 13.2973 25.0022 13.8759 24.9125 14.4543C24.8797 14.6656 24.847 14.8765 24.8267 15.0872C24.7622 15.7533 24.8409 16.6232 25.2936 17.2075L24.2125 18.2505C29.6338 21.0201 33.3485 26.6839 33.3485 33.221C33.3485 34.992 33.0758 36.6988 32.5706 38.3015L30.7789 50H16.2126V49.995C7.21711 49.8013 0 43.9353 0 33.221C0 26.9227 3.01575 21.8524 7.57816 18.9935L7.56686 18.9845C7.87766 18.7685 8.24416 18.5487 8.63707 18.3131L8.63995 18.3113C9.93394 17.5357 11.5153 16.5876 12.3497 15.0372C13.0732 13.6931 13.2136 11.5116 13.2136 10.5002L13.217 10.5018V5.9127Z" fill="url(#paint1_radial_6_274)"/>
<path d="M13.217 5.9127C13.217 2.6472 15.8642 0 19.1297 0C22.3951 0 25.0425 2.6472 25.0425 5.9127V12.717C25.0425 13.2973 25.0022 13.8759 24.9125 14.4543C24.8797 14.6656 24.847 14.8765 24.8267 15.0872C24.7622 15.7533 24.8409 16.6232 25.2936 17.2075L24.2125 18.2505C29.6338 21.0201 33.3485 26.6839 33.3485 33.221C33.3485 34.992 33.0758 36.6988 32.5706 38.3015L30.7789 50H16.2126V49.995C7.21711 49.8013 0 43.9353 0 33.221C0 26.9227 3.01575 21.8524 7.57816 18.9935L7.56686 18.9845C7.87766 18.7685 8.24416 18.5487 8.63707 18.3131L8.63995 18.3113C9.93394 17.5357 11.5153 16.5876 12.3497 15.0372C13.0732 13.6931 13.2136 11.5116 13.2136 10.5002L13.217 10.5018V5.9127Z" fill="url(#paint2_radial_6_274)"/>
<path d="M13.217 5.9127C13.217 2.6472 15.8642 0 19.1297 0C22.3951 0 25.0425 2.6472 25.0425 5.9127V12.717C25.0425 13.2973 25.0022 13.8759 24.9125 14.4543C24.8797 14.6656 24.847 14.8765 24.8267 15.0872C24.7622 15.7533 24.8409 16.6232 25.2936 17.2075L24.2125 18.2505C29.6338 21.0201 33.3485 26.6839 33.3485 33.221C33.3485 34.992 33.0758 36.6988 32.5706 38.3015L30.7789 50H16.2126V49.995C7.21711 49.8013 0 43.9353 0 33.221C0 26.9227 3.01575 21.8524 7.57816 18.9935L7.56686 18.9845C7.87766 18.7685 8.24416 18.5487 8.63707 18.3131L8.63995 18.3113C9.93394 17.5357 11.5153 16.5876 12.3497 15.0372C13.0732 13.6931 13.2136 11.5116 13.2136 10.5002L13.217 10.5018V5.9127Z" fill="url(#paint3_radial_6_274)"/>
<path d="M13.217 5.9127C13.217 2.6472 15.8642 0 19.1297 0C22.3951 0 25.0425 2.6472 25.0425 5.9127V12.717C25.0425 13.2973 25.0022 13.8759 24.9125 14.4543C24.8797 14.6656 24.847 14.8765 24.8267 15.0872C24.7622 15.7533 24.8409 16.6232 25.2936 17.2075L24.2125 18.2505C29.6338 21.0201 33.3485 26.6839 33.3485 33.221C33.3485 34.992 33.0758 36.6988 32.5706 38.3015L30.7789 50H16.2126V49.995C7.21711 49.8013 0 43.9353 0 33.221C0 26.9227 3.01575 21.8524 7.57816 18.9935L7.56686 18.9845C7.87766 18.7685 8.24416 18.5487 8.63707 18.3131L8.63995 18.3113C9.93394 17.5357 11.5153 16.5876 12.3497 15.0372C13.0732 13.6931 13.2136 11.5116 13.2136 10.5002L13.217 10.5018V5.9127Z" fill="url(#paint4_radial_6_274)"/>
<path d="M13.217 5.9127C13.217 2.6472 15.8642 0 19.1297 0C22.3951 0 25.0425 2.6472 25.0425 5.9127V12.717C25.0425 13.2973 25.0022 13.8759 24.9125 14.4543C24.8797 14.6656 24.847 14.8765 24.8267 15.0872C24.7622 15.7533 24.8409 16.6232 25.2936 17.2075L24.2125 18.2505C29.6338 21.0201 33.3485 26.6839 33.3485 33.221C33.3485 34.992 33.0758 36.6988 32.5706 38.3015L30.7789 50H16.2126V49.995C7.21711 49.8013 0 43.9353 0 33.221C0 26.9227 3.01575 21.8524 7.57816 18.9935L7.56686 18.9845C7.87766 18.7685 8.24416 18.5487 8.63707 18.3131L8.63995 18.3113C9.93394 17.5357 11.5153 16.5876 12.3497 15.0372C13.0732 13.6931 13.2136 11.5116 13.2136 10.5002L13.217 10.5018V5.9127Z" fill="url(#paint5_radial_6_274)"/>
<path d="M13.217 5.9127C13.217 2.6472 15.8642 0 19.1297 0C22.3951 0 25.0425 2.6472 25.0425 5.9127V12.717C25.0425 13.2973 25.0022 13.8759 24.9125 14.4543C24.8797 14.6656 24.847 14.8765 24.8267 15.0872C24.7622 15.7533 24.8409 16.6232 25.2936 17.2075L24.2125 18.2505C29.6338 21.0201 33.3485 26.6839 33.3485 33.221C33.3485 34.992 33.0758 36.6988 32.5706 38.3015L30.7789 50H16.2126V49.995C7.21711 49.8013 0 43.9353 0 33.221C0 26.9227 3.01575 21.8524 7.57816 18.9935L7.56686 18.9845C7.87766 18.7685 8.24416 18.5487 8.63707 18.3131L8.63995 18.3113C9.93394 17.5357 11.5153 16.5876 12.3497 15.0372C13.0732 13.6931 13.2136 11.5116 13.2136 10.5002L13.217 10.5018V5.9127Z" fill="url(#paint6_radial_6_274)"/>
<path d="M13.217 5.9127C13.217 2.6472 15.8642 0 19.1297 0C22.3951 0 25.0425 2.6472 25.0425 5.9127V12.717C25.0425 13.2973 25.0022 13.8759 24.9125 14.4543C24.8797 14.6656 24.847 14.8765 24.8267 15.0872C24.7622 15.7533 24.8409 16.6232 25.2936 17.2075L24.2125 18.2505C29.6338 21.0201 33.3485 26.6839 33.3485 33.221C33.3485 34.992 33.0758 36.6988 32.5706 38.3015L30.7789 50H16.2126V49.995C7.21711 49.8013 0 43.9353 0 33.221C0 26.9227 3.01575 21.8524 7.57816 18.9935L7.56686 18.9845C7.87766 18.7685 8.24416 18.5487 8.63707 18.3131L8.63995 18.3113C9.93394 17.5357 11.5153 16.5876 12.3497 15.0372C13.0732 13.6931 13.2136 11.5116 13.2136 10.5002L13.217 10.5018V5.9127Z" fill="url(#paint7_linear_6_274)"/>
<path d="M33.7338 23.0842C33.7338 20.5503 31.6796 18.4962 29.1457 18.4962H24.0638C21.5299 18.4962 19.4757 20.5503 19.4757 23.0842C19.4757 24.4972 20.1145 25.761 21.1191 26.6027C20.0085 27.443 19.2905 28.7769 19.2905 30.275C19.2905 31.6776 19.92 32.9364 20.9118 33.7807C19.92 34.6223 19.2905 35.8779 19.2905 37.2804V37.5068C19.2905 38.764 19.7961 39.903 20.6151 40.7317C19.7972 41.5409 19.2905 42.6641 19.2905 43.9054C19.2905 46.3712 21.2893 48.3701 23.7551 48.3701H28.796C31.2618 48.3701 33.2606 46.3712 33.2606 43.9054C33.2606 43.0893 33.0416 42.3243 32.6592 41.6661C34.2236 40.9352 35.3077 39.3476 35.3077 37.5068V37.2804C35.3077 35.8608 34.6628 34.5918 33.6502 33.7501C34.6215 32.906 35.2358 31.6607 35.2358 30.275C35.2358 28.437 34.1549 26.8459 32.5942 26.1107C33.3037 25.3029 33.7338 24.2437 33.7338 23.0842Z" fill="url(#paint8_linear_6_274)"/>
<path d="M37.8296 21.1638V21.1638C37.8296 18.2741 35.487 15.9315 32.5973 15.9315H26.8019C23.9122 15.9315 21.5696 18.2741 21.5696 21.1638V21.1638C21.5696 24.0535 23.9122 26.3961 26.8019 26.3961H32.5973C35.487 26.3961 37.8296 24.0535 37.8296 21.1638Z" fill="url(#paint9_linear_6_274)"/>
<path d="M37.8296 21.1638V21.1638C37.8296 18.2741 35.487 15.9315 32.5973 15.9315H26.8019C23.9122 15.9315 21.5696 18.2741 21.5696 21.1638V21.1638C21.5696 24.0535 23.9122 26.3961 26.8019 26.3961H32.5973C35.487 26.3961 37.8296 24.0535 37.8296 21.1638Z" fill="url(#paint10_radial_6_274)"/>
<path d="M37.8296 21.1638V21.1638C37.8296 18.2741 35.487 15.9315 32.5973 15.9315H26.8019C23.9122 15.9315 21.5696 18.2741 21.5696 21.1638V21.1638C21.5696 24.0535 23.9122 26.3961 26.8019 26.3961H32.5973C35.487 26.3961 37.8296 24.0535 37.8296 21.1638Z" fill="url(#paint11_radial_6_274)"/>
<path d="M33.8329 18.4962H27.3239C26.075 18.4962 25.0625 19.5086 25.0625 20.7576V20.7576C25.0625 22.0066 26.075 23.019 27.3239 23.019H33.8329C35.0818 23.019 36.0943 22.0066 36.0943 20.7576V20.7576C36.0943 19.5086 35.0818 18.4962 33.8329 18.4962Z" fill="url(#paint12_linear_6_274)"/>
<path d="M32.199 50C35.011 50 37.2905 47.7205 37.2905 44.9085C37.2905 42.0966 35.011 39.817 32.199 39.817H26.4505C23.6385 39.817 21.359 42.0966 21.359 44.9085C21.359 47.7205 23.6385 50 26.4505 50H32.199Z" fill="url(#paint13_linear_6_274)"/>
<path d="M32.199 50C35.011 50 37.2905 47.7205 37.2905 44.9085C37.2905 42.0966 35.011 39.817 32.199 39.817H26.4505C23.6385 39.817 21.359 42.0966 21.359 44.9085C21.359 47.7205 23.6385 50 26.4505 50H32.199Z" fill="url(#paint14_radial_6_274)"/>
<path d="M32.199 50C35.011 50 37.2905 47.7205 37.2905 44.9085C37.2905 42.0966 35.011 39.817 32.199 39.817H26.4505C23.6385 39.817 21.359 42.0966 21.359 44.9085C21.359 47.7205 23.6385 50 26.4505 50H32.199Z" fill="url(#paint15_radial_6_274)"/>
<path d="M34.7679 42.8435H27.7665C27.0336 42.8435 26.4395 43.4377 26.4395 44.1706C26.4395 44.9035 27.0336 45.4977 27.7665 45.4977H34.7679C35.5008 45.4977 36.095 44.9035 36.095 44.1706C36.095 43.4377 35.5008 42.8435 34.7679 42.8435Z" fill="url(#paint16_linear_6_274)"/>
<path d="M39.625 37.6114V37.3532C39.625 34.4635 37.2824 32.121 34.3927 32.121H26.5912C23.7015 32.121 21.3589 34.4635 21.3589 37.3532V37.6114C21.3589 40.5011 23.7015 42.8437 26.5912 42.8437H34.3927C37.2824 42.8437 39.625 40.5011 39.625 37.6114Z" fill="url(#paint17_linear_6_274)"/>
<path d="M39.625 37.6114V37.3532C39.625 34.4635 37.2824 32.121 34.3927 32.121H26.5912C23.7015 32.121 21.3589 34.4635 21.3589 37.3532V37.6114C21.3589 40.5011 23.7015 42.8437 26.5912 42.8437H34.3927C37.2824 42.8437 39.625 40.5011 39.625 37.6114Z" fill="url(#paint18_radial_6_274)"/>
<path d="M39.625 37.6114V37.3532C39.625 34.4635 37.2824 32.121 34.3927 32.121H26.5912C23.7015 32.121 21.3589 34.4635 21.3589 37.3532V37.6114C21.3589 40.5011 23.7015 42.8437 26.5912 42.8437H34.3927C37.2824 42.8437 39.625 40.5011 39.625 37.6114Z" fill="url(#paint19_radial_6_274)"/>
<path d="M36.5028 35.8854H27.0659C26.3329 35.8854 25.7388 36.4795 25.7388 37.2125C25.7388 37.9454 26.3329 38.5395 27.0659 38.5395H36.5028C37.2357 38.5395 37.8298 37.9454 37.8298 37.2125C37.8298 36.4795 37.2357 35.8854 36.5028 35.8854Z" fill="url(#paint20_linear_6_274)"/>
<path d="M39.543 29.3757V29.3523C39.543 26.4626 37.2004 24.12 34.3107 24.12H26.5913C23.7016 24.12 21.359 26.4626 21.359 29.3523V29.3757C21.359 32.2655 23.7016 34.608 26.5913 34.608H34.3107C37.2004 34.608 39.543 32.2655 39.543 29.3757Z" fill="url(#paint21_linear_6_274)"/>
<path d="M39.543 29.3757V29.3523C39.543 26.4626 37.2004 24.12 34.3107 24.12H26.5913C23.7016 24.12 21.359 26.4626 21.359 29.3523V29.3757C21.359 32.2655 23.7016 34.608 26.5913 34.608H34.3107C37.2004 34.608 39.543 32.2655 39.543 29.3757Z" fill="url(#paint22_radial_6_274)"/>
<path d="M35.5683 26.3217H27.196C25.947 26.3217 24.9346 27.3341 24.9346 28.5831V28.5831C24.9346 29.8321 25.947 30.8445 27.196 30.8445H35.5683C36.8172 30.8445 37.8297 29.8321 37.8297 28.5831V28.5831C37.8297 27.3341 36.8172 26.3217 35.5683 26.3217Z" fill="url(#paint23_linear_6_274)"/>
<path d="M19.1497 0C15.8844 0 13.2371 2.64721 13.2371 5.9127V10.5018L13.2337 10.5002C13.2337 11.5116 13.0932 13.6931 12.3697 15.0372C11.5353 16.5878 9.95398 17.5357 8.65998 18.3113C8.26599 18.5476 7.89847 18.768 7.58691 18.9845C9.37557 20.4171 13.0384 23.2798 13.1283 23.2124C13.2182 23.145 17.3424 20.9556 19.3931 19.8693L19.3059 18.6278C22.4991 18.5449 25.0625 15.9303 25.0625 12.717V5.9127C25.0625 2.64721 22.4152 0 19.1497 0Z" fill="url(#paint24_radial_6_274)"/>
<path d="M23.5514 4.36475C23.5514 3.18814 22.5975 2.23431 21.4209 2.23431C20.2443 2.23431 19.2905 3.18814 19.2905 4.36475V14.483C19.2905 15.6596 20.2443 16.6134 21.4209 16.6134C22.5975 16.6134 23.5514 15.6596 23.5514 14.483V4.36475Z" fill="url(#paint25_linear_6_274)"/>
<defs>
<linearGradient id="paint0_linear_6_274" x1="26.6276" y1="17.914" x2="6.21021" y2="56.8785" gradientUnits="userSpaceOnUse">
<stop stop-color="#FFDDBE"/>
<stop offset="1" stop-color="#E7AFA8"/>
</linearGradient>
<radialGradient id="paint1_radial_6_274" cx="0" cy="0" r="1" gradientUnits="userSpaceOnUse" gradientTransform="translate(23.8003 2.56011) rotate(138.814) scale(6.6634 5.19903)">
<stop stop-color="#FFE6C7"/>
<stop offset="1" stop-color="#FFE6C7" stop-opacity="0"/>
</radialGradient>
<radialGradient id="paint2_radial_6_274" cx="0" cy="0" r="1" gradientUnits="userSpaceOnUse" gradientTransform="translate(9.84782 24.9999) rotate(133.564) scale(13.3269 9.65424)">
<stop stop-color="#F2C0A5"/>
<stop offset="1" stop-color="#F2C0A5" stop-opacity="0"/>
</radialGradient>
<radialGradient id="paint3_radial_6_274" cx="0" cy="0" r="1" gradientUnits="userSpaceOnUse" gradientTransform="translate(27.0121 26.6016) rotate(135.794) scale(19.2189 11.8479)">
<stop stop-color="#DDA895"/>
<stop offset="1" stop-color="#DDA895" stop-opacity="0"/>
</radialGradient>
<radialGradient id="paint4_radial_6_274" cx="0" cy="0" r="1" gradientUnits="userSpaceOnUse" gradientTransform="translate(10.0762 57.3634) rotate(-62.6117) scale(26.5059 47.1273)">
<stop stop-color="#C08494"/>
<stop offset="1" stop-color="#C08494" stop-opacity="0"/>
</radialGradient>
<radialGradient id="paint5_radial_6_274" cx="0" cy="0" r="1" gradientUnits="userSpaceOnUse" gradientTransform="translate(27.5391 33.7534) rotate(180) scale(27.9297 42.985)">
<stop offset="0.863834" stop-color="#EDB29B" stop-opacity="0"/>
<stop offset="1" stop-color="#EDB29B"/>
</radialGradient>
<radialGradient id="paint6_radial_6_274" cx="0" cy="0" r="1" gradientUnits="userSpaceOnUse" gradientTransform="translate(24.1796 16.696) rotate(38.8999) scale(2.8089 3.69911)">
<stop stop-color="#FFDBBA"/>
<stop offset="1" stop-color="#FFDBBA" stop-opacity="0"/>
</radialGradient>
<linearGradient id="paint7_linear_6_274" x1="16.6744" y1="52.1942" x2="16.6744" y2="46.0137" gradientUnits="userSpaceOnUse">
<stop stop-color="#B57895"/>
<stop offset="1" stop-color="#B57895" stop-opacity="0"/>
</linearGradient>
<linearGradient id="paint8_linear_6_274" x1="26.0383" y1="21.8193" x2="26.0383" y2="49.4504" gradientUnits="userSpaceOnUse">
<stop stop-color="#B5755F"/>
<stop offset="1" stop-color="#B3748D"/>
</linearGradient>
<linearGradient id="paint9_linear_6_274" x1="37.8296" y1="21.1638" x2="23.1853" y2="21.1638" gradientUnits="userSpaceOnUse">
<stop stop-color="#FFD8BA"/>
<stop offset="1" stop-color="#ECB9A3"/>
</linearGradient>
<radialGradient id="paint10_radial_6_274" cx="0" cy="0" r="1" gradientUnits="userSpaceOnUse" gradientTransform="translate(23.0497 24.3086) scale(11.9133 4.77841)">
<stop stop-color="#DFA995"/>
<stop offset="1" stop-color="#DFA995" stop-opacity="0"/>
</radialGradient>
<radialGradient id="paint11_radial_6_274" cx="0" cy="0" r="1" gradientUnits="userSpaceOnUse" gradientTransform="translate(24.2145 25.802) rotate(-142.633) scale(4.17327 2.79347)">
<stop stop-color="#CA8C6F"/>
<stop offset="1" stop-color="#CA8C6F" stop-opacity="0"/>
</radialGradient>
<linearGradient id="paint12_linear_6_274" x1="35.5211" y1="19.7362" x2="23.6297" y2="19.7362" gradientUnits="userSpaceOnUse">
<stop stop-color="#FFE7CA"/>
<stop offset="1" stop-color="#FFE7CA" stop-opacity="0"/>
</linearGradient>
<linearGradient id="paint13_linear_6_274" x1="35.8949" y1="44.9085" x2="21.3591" y2="44.9085" gradientUnits="userSpaceOnUse">
<stop stop-color="#FECEB7"/>
<stop offset="1" stop-color="#DAA59E"/>
</linearGradient>
<radialGradient id="paint14_radial_6_274" cx="0" cy="0" r="1" gradientUnits="userSpaceOnUse" gradientTransform="translate(25.9484 50) scale(14.7571 2.79777)">
<stop stop-color="#BF8196"/>
<stop offset="1" stop-color="#BF8196" stop-opacity="0"/>
</radialGradient>
<radialGradient id="paint15_radial_6_274" cx="0" cy="0" r="1" gradientUnits="userSpaceOnUse" gradientTransform="translate(25.1909 41.6047) scale(12.0998 2.72047)">
<stop stop-color="#B57767"/>
<stop offset="1" stop-color="#B57767" stop-opacity="0"/>
</radialGradient>
<linearGradient id="paint16_linear_6_274" x1="35.5935" y1="43.5713" x2="25.1855" y2="43.5713" gradientUnits="userSpaceOnUse">
<stop stop-color="#FFD2C1"/>
<stop offset="1" stop-color="#FFD2C1" stop-opacity="0"/>
</linearGradient>
<linearGradient id="paint17_linear_6_274" x1="38.0248" y1="37.4823" x2="21.3589" y2="37.4823" gradientUnits="userSpaceOnUse">
<stop stop-color="#FFDDC1"/>
<stop offset="1" stop-color="#E5B1A3"/>
</linearGradient>
<radialGradient id="paint18_radial_6_274" cx="0" cy="0" r="1" gradientUnits="userSpaceOnUse" gradientTransform="translate(25.0593 42.8437) scale(16.5716 5.89511)">
<stop offset="0.139674" stop-color="#CA8E96"/>
<stop offset="1" stop-color="#CA8E96" stop-opacity="0"/>
</radialGradient>
<radialGradient id="paint19_radial_6_274" cx="0" cy="0" r="1" gradientUnits="userSpaceOnUse" gradientTransform="translate(26.5349 33.0584) scale(8.54627 3.46927)">
<stop stop-color="#BB7E6C"/>
<stop offset="1" stop-color="#BB7E6C" stop-opacity="0"/>
</radialGradient>
<linearGradient id="paint20_linear_6_274" x1="37.2019" y1="36.6132" x2="24.1686" y2="36.6132" gradientUnits="userSpaceOnUse">
<stop stop-color="#FFE2C9"/>
<stop offset="1" stop-color="#FFE2C9" stop-opacity="0"/>
</linearGradient>
<linearGradient id="paint21_linear_6_274" x1="39.543" y1="29.3641" x2="21.359" y2="29.3641" gradientUnits="userSpaceOnUse">
<stop stop-color="#FFDFBF"/>
<stop offset="1" stop-color="#E2AE9C"/>
</linearGradient>
<radialGradient id="paint22_radial_6_274" cx="0" cy="0" r="1" gradientUnits="userSpaceOnUse" gradientTransform="translate(25.9773 34.6081) scale(14.5523 6.7547)">
<stop stop-color="#D39797"/>
<stop offset="1" stop-color="#D39797" stop-opacity="0"/>
</radialGradient>
<linearGradient id="paint23_linear_6_274" x1="37.1599" y1="27.5617" x2="23.2599" y2="27.5617" gradientUnits="userSpaceOnUse">
<stop stop-color="#FFE8CA"/>
<stop offset="1" stop-color="#FFE8CA" stop-opacity="0"/>
</linearGradient>
<radialGradient id="paint24_radial_6_274" cx="0" cy="0" r="1" gradientUnits="userSpaceOnUse" gradientTransform="translate(13.3685 7.3199) rotate(90) scale(11.3793 4.49104)">
<stop stop-color="#E0A892"/>
<stop offset="1" stop-color="#E0A892" stop-opacity="0"/>
</radialGradient>
<linearGradient id="paint25_linear_6_274" x1="23.33" y1="6.17692" x2="18.7371" y2="6.17692" gradientUnits="userSpaceOnUse">
<stop stop-color="#FFE7CA"/>
<stop offset="1" stop-color="#FFE7CA" stop-opacity="0"/>
</linearGradient>
</defs>
</svg>
