<svg width="54" height="50" viewBox="0 0 54 50" fill="none" xmlns="http://www.w3.org/2000/svg">
<path d="M26.6592 50C43.3291 50 51.6592 38.8072 51.6592 25C51.6592 11.1929 43.3291 0 26.6592 0C9.98919 0 1.65918 11.1929 1.65918 25C1.65918 38.8072 9.98919 50 26.6592 50Z" fill="url(#paint0_radial_6_195)"/>
<path d="M26.6592 50C43.3291 50 51.6592 38.8072 51.6592 25C51.6592 11.1929 43.3291 0 26.6592 0C9.98919 0 1.65918 11.1929 1.65918 25C1.65918 38.8072 9.98919 50 26.6592 50Z" fill="url(#paint1_radial_6_195)"/>
<path d="M26.6592 50C43.3291 50 51.6592 38.8072 51.6592 25C51.6592 11.1929 43.3291 0 26.6592 0C9.98919 0 1.65918 11.1929 1.65918 25C1.65918 38.8072 9.98919 50 26.6592 50Z" fill="url(#paint2_radial_6_195)"/>
<path d="M26.6592 50C43.3291 50 51.6592 38.8072 51.6592 25C51.6592 11.1929 43.3291 0 26.6592 0C9.98919 0 1.65918 11.1929 1.65918 25C1.65918 38.8072 9.98919 50 26.6592 50Z" fill="url(#paint3_radial_6_195)" fill-opacity="0.6"/>
<path d="M26.6592 50C43.3291 50 51.6592 38.8072 51.6592 25C51.6592 11.1929 43.3291 0 26.6592 0C9.98919 0 1.65918 11.1929 1.65918 25C1.65918 38.8072 9.98919 50 26.6592 50Z" fill="url(#paint4_radial_6_195)"/>
<path d="M26.6592 50C43.3291 50 51.6592 38.8072 51.6592 25C51.6592 11.1929 43.3291 0 26.6592 0C9.98919 0 1.65918 11.1929 1.65918 25C1.65918 38.8072 9.98919 50 26.6592 50Z" fill="url(#paint5_radial_6_195)"/>
<path d="M26.6592 50C43.3291 50 51.6592 38.8072 51.6592 25C51.6592 11.1929 43.3291 0 26.6592 0C9.98919 0 1.65918 11.1929 1.65918 25C1.65918 38.8072 9.98919 50 26.6592 50Z" fill="url(#paint6_radial_6_195)"/>
<path d="M26.6592 50C43.3291 50 51.6592 38.8072 51.6592 25C51.6592 11.1929 43.3291 0 26.6592 0C9.98919 0 1.65918 11.1929 1.65918 25C1.65918 38.8072 9.98919 50 26.6592 50Z" fill="url(#paint7_radial_6_195)"/>
<path d="M18.3184 30.3595C18.3184 30.3595 20.8214 33.9312 26.6617 33.9312C32.502 33.9312 35.005 30.3595 35.005 30.3595" stroke="url(#paint8_radial_6_195)" stroke-width="8.10956" stroke-linecap="round" stroke-linejoin="round"/>
<path d="M4.42725 22.4946C4.8179 24.1132 5.94031 27.1877 9.52418 28.0749C10.0584 28.2072 10.5835 28.3033 11.1102 28.3758C11.1358 28.3794 11.1615 28.3824 11.1872 28.3847C18.8754 29.1053 23.958 22.6064 24.206 15.536C24.2267 14.9501 24.6778 14.4545 25.2641 14.4469C25.5763 14.4429 25.9001 14.4433 26.2333 14.4492C26.8173 14.4594 27.2654 14.9535 27.2861 15.5371C27.5372 22.6071 32.6149 29.1055 40.3046 28.3847C40.3303 28.3824 40.356 28.3794 40.3816 28.3758C40.9082 28.3033 41.4334 28.2072 41.9676 28.0749C46.7155 26.8994 49.6609 23.7788 51.1671 20.4318C50.9335 19.0158 50.6008 17.6439 50.1691 16.3274C49.7184 20.2623 47.6114 20.7591 41.9676 22.1564C41.5031 22.2714 39.9156 23.3781 39.442 23.4435C34.0845 23.9456 32.5777 20.4318 29.5409 14.821L29.5405 14.7653C29.5405 14.7394 29.5407 14.7137 29.5413 14.6879C29.7379 14.7137 29.9356 14.7417 30.1338 14.7722L30.6224 11.6016C31.1871 10.8739 31.9418 10.3014 32.8124 9.95879C33.0171 9.87042 33.4955 9.66957 34.9749 9.39374C36.5013 9.10915 40.5762 9.1124 43.0632 9.1144L43.6183 9.1147C44.9314 9.1147 46.124 9.49598 46.8942 9.84464C46.2651 8.97827 45.5723 8.16004 44.8162 7.39564C44.4235 7.35303 44.0213 7.32885 43.6183 7.32885L43.0564 7.32853C41.817 7.32755 40.1598 7.32623 38.6182 7.36121C37.1249 7.39511 34.9126 7.49031 33.9827 7.66368C32.4452 7.95031 31.825 8.17995 31.466 8.33339C30.4786 8.72685 29.6307 9.33336 28.9614 10.098C28.5214 10.6007 27.8979 10.9364 27.2304 10.9068C26.1587 10.8593 25.1509 10.8648 24.2487 10.9013C23.5845 10.9282 22.9652 10.5939 22.527 10.0941C21.8582 9.33129 21.0115 8.72617 20.0259 8.33339C19.6667 8.17995 19.0465 7.95031 17.5092 7.66368C16.5793 7.49031 14.3669 7.39511 12.8735 7.36121C11.3321 7.32623 9.67466 7.32755 8.43538 7.32853L8.41242 7.32855C7.82048 7.92163 7.26702 8.54748 6.75204 9.20341C7.11028 9.1478 7.4867 9.1147 7.87361 9.1147L8.42854 9.1144C10.9156 9.1124 14.9905 9.10915 16.5168 9.39374C17.9964 9.66957 18.4748 9.87042 18.6793 9.95879C19.518 10.2888 20.2489 10.8321 20.8061 11.5218L21.4165 14.7622C21.5621 14.7349 21.7412 14.7058 21.9505 14.6765C21.9508 14.7062 21.9512 14.7356 21.9512 14.7653L21.9508 14.821C22.2718 22.341 16.5447 26.8735 11.1872 26.3714C10.7136 26.306 10.2512 26.221 9.78667 26.106C5.68183 25.0897 5.98014 22.0742 4.8179 19.2021C4.61171 20.257 4.52074 21.3917 4.42725 22.4946Z" fill="url(#paint9_linear_6_195)"/>
<path fill-rule="evenodd" clip-rule="evenodd" d="M20.9415 6.54754C21.9273 6.94032 22.774 7.54543 23.4428 8.30823C23.881 8.80802 24.5004 9.14236 25.1645 9.11547C26.0667 9.07891 27.0745 9.07348 28.1462 9.12097C28.8137 9.15054 29.4372 8.81489 29.8772 8.31217C30.5465 7.54751 31.3945 6.94099 32.3817 6.54754C32.7408 6.39409 33.361 6.16445 34.8983 5.87782C35.8282 5.70445 38.0407 5.60925 39.534 5.57535C41.0754 5.54037 42.7329 5.54169 43.9722 5.54267L44.5339 5.54299C46.658 5.54299 48.7535 6.2141 49.5846 6.71496C51.4541 7.66369 53.1842 9.47744 53.3083 12.5986C53.3133 12.6453 53.3167 12.6923 53.3181 12.7397C53.4655 17.5407 50.4842 24.4073 42.8834 26.289C42.3491 26.4214 41.824 26.5174 41.2974 26.59C41.2718 26.5935 41.2461 26.5966 41.2204 26.5989C33.5307 27.3196 28.453 20.8213 28.2019 13.7512C28.1812 13.1676 27.7331 12.6735 27.1491 12.6633C26.8159 12.6574 26.4921 12.657 26.18 12.6611C25.5937 12.6686 25.1425 13.1642 25.1218 13.7502C24.8738 20.8206 19.7911 27.3195 12.103 26.5989C12.0773 26.5966 12.0516 26.5935 12.026 26.59C11.4993 26.5174 10.9742 26.4214 10.44 26.289C2.83922 24.4073 -0.142092 17.5407 0.00518014 12.7397C0.00662668 12.6923 0.00994845 12.6453 0.0151096 12.5986C0.139173 9.47744 1.86922 7.66369 3.73879 6.71496C4.56979 6.2141 6.66535 5.54299 8.78941 5.54299L9.35116 5.54267C10.5905 5.54169 12.2479 5.54037 13.7893 5.57535C15.2827 5.60925 17.495 5.70445 18.4249 5.87782C19.9623 6.16445 20.5825 6.39409 20.9415 6.54754ZM2.5357 11.0098C2.98197 9.92287 3.81032 9.03464 4.9255 8.36252C5.55254 7.98458 7.06722 7.32885 8.78941 7.32885L9.34434 7.32854C11.8314 7.32654 15.9063 7.32329 17.4327 7.60789C18.9122 7.88371 19.3907 8.08457 19.5951 8.17293C20.4336 8.50292 21.1647 9.04621 21.7219 9.73593L22.3321 12.9765C22.4779 12.949 22.657 12.9199 22.8661 12.8907C22.8667 12.9202 22.867 12.9498 22.867 12.9794L22.8667 13.0351C23.1876 20.5552 17.4605 25.0877 12.103 24.5855C11.6294 24.5201 11.167 24.4351 10.7024 24.3201C5.05865 22.9229 2.68919 18.4765 2.23841 14.5415C2.16899 13.9355 2.14506 13.3416 2.16171 12.7729L2.16219 12.757L2.16578 12.7571L2.16644 12.7397C2.1913 12.1172 2.31806 11.5398 2.5357 11.0098ZM30.4569 12.9021C30.4565 12.9278 30.4564 12.9536 30.4564 12.9794L30.4567 13.0351C30.1358 20.5552 35.8629 25.0877 41.2204 24.5855C41.694 24.5201 42.1564 24.4351 42.6209 24.3201C48.2647 22.9229 50.6342 18.4765 51.0849 14.5415C51.1544 13.9355 51.1783 13.3416 51.1617 12.7729L51.1612 12.757L51.1576 12.7571L51.1569 12.7397C51.1321 12.1172 51.0053 11.5398 50.7876 11.0098C50.3413 9.92287 49.513 9.03464 48.3979 8.36252C47.7707 7.98458 46.2562 7.32885 44.5339 7.32885L43.979 7.32854C41.4919 7.32654 37.4171 7.32329 35.8907 7.60789C34.4111 7.88371 33.9327 8.08457 33.7282 8.17293C32.8576 8.51555 32.1027 9.08807 31.5382 9.8157L31.0496 12.9865C30.8514 12.9559 30.6537 12.9278 30.4569 12.9021Z" fill="url(#paint10_radial_6_195)"/>
<path fill-rule="evenodd" clip-rule="evenodd" d="M20.9415 6.54754C21.9273 6.94032 22.774 7.54543 23.4428 8.30823C23.881 8.80802 24.5004 9.14236 25.1645 9.11547C26.0667 9.07891 27.0745 9.07348 28.1462 9.12097C28.8137 9.15054 29.4372 8.81489 29.8772 8.31217C30.5465 7.54751 31.3945 6.94099 32.3817 6.54754C32.7408 6.39409 33.361 6.16445 34.8983 5.87782C35.8282 5.70445 38.0407 5.60925 39.534 5.57535C41.0754 5.54037 42.7329 5.54169 43.9722 5.54267L44.5339 5.54299C46.658 5.54299 48.7535 6.2141 49.5846 6.71496C51.4541 7.66369 53.1842 9.47744 53.3083 12.5986C53.3133 12.6453 53.3167 12.6923 53.3181 12.7397C53.4655 17.5407 50.4842 24.4073 42.8834 26.289C42.3491 26.4214 41.824 26.5174 41.2974 26.59C41.2718 26.5935 41.2461 26.5966 41.2204 26.5989C33.5307 27.3196 28.453 20.8213 28.2019 13.7512C28.1812 13.1676 27.7331 12.6735 27.1491 12.6633C26.8159 12.6574 26.4921 12.657 26.18 12.6611C25.5937 12.6686 25.1425 13.1642 25.1218 13.7502C24.8738 20.8206 19.7911 27.3195 12.103 26.5989C12.0773 26.5966 12.0516 26.5935 12.026 26.59C11.4993 26.5174 10.9742 26.4214 10.44 26.289C2.83922 24.4073 -0.142092 17.5407 0.00518014 12.7397C0.00662668 12.6923 0.00994845 12.6453 0.0151096 12.5986C0.139173 9.47744 1.86922 7.66369 3.73879 6.71496C4.56979 6.2141 6.66535 5.54299 8.78941 5.54299L9.35116 5.54267C10.5905 5.54169 12.2479 5.54037 13.7893 5.57535C15.2827 5.60925 17.495 5.70445 18.4249 5.87782C19.9623 6.16445 20.5825 6.39409 20.9415 6.54754ZM2.5357 11.0098C2.98197 9.92287 3.81032 9.03464 4.9255 8.36252C5.55254 7.98458 7.06722 7.32885 8.78941 7.32885L9.34434 7.32854C11.8314 7.32654 15.9063 7.32329 17.4327 7.60789C18.9122 7.88371 19.3907 8.08457 19.5951 8.17293C20.4336 8.50292 21.1647 9.04621 21.7219 9.73593L22.3321 12.9765C22.4779 12.949 22.657 12.9199 22.8661 12.8907C22.8667 12.9202 22.867 12.9498 22.867 12.9794L22.8667 13.0351C23.1876 20.5552 17.4605 25.0877 12.103 24.5855C11.6294 24.5201 11.167 24.4351 10.7024 24.3201C5.05865 22.9229 2.68919 18.4765 2.23841 14.5415C2.16899 13.9355 2.14506 13.3416 2.16171 12.7729L2.16219 12.757L2.16578 12.7571L2.16644 12.7397C2.1913 12.1172 2.31806 11.5398 2.5357 11.0098ZM30.4569 12.9021C30.4565 12.9278 30.4564 12.9536 30.4564 12.9794L30.4567 13.0351C30.1358 20.5552 35.8629 25.0877 41.2204 24.5855C41.694 24.5201 42.1564 24.4351 42.6209 24.3201C48.2647 22.9229 50.6342 18.4765 51.0849 14.5415C51.1544 13.9355 51.1783 13.3416 51.1617 12.7729L51.1612 12.757L51.1576 12.7571L51.1569 12.7397C51.1321 12.1172 51.0053 11.5398 50.7876 11.0098C50.3413 9.92287 49.513 9.03464 48.3979 8.36252C47.7707 7.98458 46.2562 7.32885 44.5339 7.32885L43.979 7.32854C41.4919 7.32654 37.4171 7.32329 35.8907 7.60789C34.4111 7.88371 33.9327 8.08457 33.7282 8.17293C32.8576 8.51555 32.1027 9.08807 31.5382 9.8157L31.0496 12.9865C30.8514 12.9559 30.6537 12.9278 30.4569 12.9021Z" fill="url(#paint11_radial_6_195)"/>
<path fill-rule="evenodd" clip-rule="evenodd" d="M20.9415 6.54754C21.9273 6.94032 22.774 7.54543 23.4428 8.30823C23.881 8.80802 24.5004 9.14236 25.1645 9.11547C26.0667 9.07891 27.0745 9.07348 28.1462 9.12097C28.8137 9.15054 29.4372 8.81489 29.8772 8.31217C30.5465 7.54751 31.3945 6.94099 32.3817 6.54754C32.7408 6.39409 33.361 6.16445 34.8983 5.87782C35.8282 5.70445 38.0407 5.60925 39.534 5.57535C41.0754 5.54037 42.7329 5.54169 43.9722 5.54267L44.5339 5.54299C46.658 5.54299 48.7535 6.2141 49.5846 6.71496C51.4541 7.66369 53.1842 9.47744 53.3083 12.5986C53.3133 12.6453 53.3167 12.6923 53.3181 12.7397C53.4655 17.5407 50.4842 24.4073 42.8834 26.289C42.3491 26.4214 41.824 26.5174 41.2974 26.59C41.2718 26.5935 41.2461 26.5966 41.2204 26.5989C33.5307 27.3196 28.453 20.8213 28.2019 13.7512C28.1812 13.1676 27.7331 12.6735 27.1491 12.6633C26.8159 12.6574 26.4921 12.657 26.18 12.6611C25.5937 12.6686 25.1425 13.1642 25.1218 13.7502C24.8738 20.8206 19.7911 27.3195 12.103 26.5989C12.0773 26.5966 12.0516 26.5935 12.026 26.59C11.4993 26.5174 10.9742 26.4214 10.44 26.289C2.83922 24.4073 -0.142092 17.5407 0.00518014 12.7397C0.00662668 12.6923 0.00994845 12.6453 0.0151096 12.5986C0.139173 9.47744 1.86922 7.66369 3.73879 6.71496C4.56979 6.2141 6.66535 5.54299 8.78941 5.54299L9.35116 5.54267C10.5905 5.54169 12.2479 5.54037 13.7893 5.57535C15.2827 5.60925 17.495 5.70445 18.4249 5.87782C19.9623 6.16445 20.5825 6.39409 20.9415 6.54754ZM2.5357 11.0098C2.98197 9.92287 3.81032 9.03464 4.9255 8.36252C5.55254 7.98458 7.06722 7.32885 8.78941 7.32885L9.34434 7.32854C11.8314 7.32654 15.9063 7.32329 17.4327 7.60789C18.9122 7.88371 19.3907 8.08457 19.5951 8.17293C20.4336 8.50292 21.1647 9.04621 21.7219 9.73593L22.3321 12.9765C22.4779 12.949 22.657 12.9199 22.8661 12.8907C22.8667 12.9202 22.867 12.9498 22.867 12.9794L22.8667 13.0351C23.1876 20.5552 17.4605 25.0877 12.103 24.5855C11.6294 24.5201 11.167 24.4351 10.7024 24.3201C5.05865 22.9229 2.68919 18.4765 2.23841 14.5415C2.16899 13.9355 2.14506 13.3416 2.16171 12.7729L2.16219 12.757L2.16578 12.7571L2.16644 12.7397C2.1913 12.1172 2.31806 11.5398 2.5357 11.0098ZM30.4569 12.9021C30.4565 12.9278 30.4564 12.9536 30.4564 12.9794L30.4567 13.0351C30.1358 20.5552 35.8629 25.0877 41.2204 24.5855C41.694 24.5201 42.1564 24.4351 42.6209 24.3201C48.2647 22.9229 50.6342 18.4765 51.0849 14.5415C51.1544 13.9355 51.1783 13.3416 51.1617 12.7729L51.1612 12.757L51.1576 12.7571L51.1569 12.7397C51.1321 12.1172 51.0053 11.5398 50.7876 11.0098C50.3413 9.92287 49.513 9.03464 48.3979 8.36252C47.7707 7.98458 46.2562 7.32885 44.5339 7.32885L43.979 7.32854C41.4919 7.32654 37.4171 7.32329 35.8907 7.60789C34.4111 7.88371 33.9327 8.08457 33.7282 8.17293C32.8576 8.51555 32.1027 9.08807 31.5382 9.8157L31.0496 12.9865C30.8514 12.9559 30.6537 12.9278 30.4569 12.9021Z" fill="url(#paint12_radial_6_195)"/>
<path d="M4.92512 8.36253C5.55216 7.98459 7.06686 7.32884 8.78903 7.32884C8.96286 7.32884 9.14852 7.32869 9.34398 7.32853C11.831 7.32655 15.9059 7.3233 17.4322 7.60788C18.9118 7.88372 19.3903 8.08458 19.5949 8.17294C21.5111 8.92711 22.8666 10.7954 22.8666 12.9794L22.8662 13.0351C23.1872 20.5552 17.4603 25.0877 12.1026 24.5855C11.629 24.5202 11.1666 24.4351 10.7021 24.3201C4.18059 22.7055 2.03105 17.0197 2.16183 12.7562L2.16542 12.7571C2.23565 10.8496 3.26106 9.36548 4.92512 8.36253Z" fill="url(#paint13_radial_6_195)"/>
<path d="M4.92512 8.36253C5.55216 7.98459 7.06686 7.32884 8.78903 7.32884C8.96286 7.32884 9.14852 7.32869 9.34398 7.32853C11.831 7.32655 15.9059 7.3233 17.4322 7.60788C18.9118 7.88372 19.3903 8.08458 19.5949 8.17294C21.5111 8.92711 22.8666 10.7954 22.8666 12.9794L22.8662 13.0351C23.1872 20.5552 17.4603 25.0877 12.1026 24.5855C11.629 24.5202 11.1666 24.4351 10.7021 24.3201C4.18059 22.7055 2.03105 17.0197 2.16183 12.7562L2.16542 12.7571C2.23565 10.8496 3.26106 9.36548 4.92512 8.36253Z" fill="url(#paint14_radial_6_195)"/>
<path d="M4.92512 8.36253C5.55216 7.98459 7.06686 7.32884 8.78903 7.32884C8.96286 7.32884 9.14852 7.32869 9.34398 7.32853C11.831 7.32655 15.9059 7.3233 17.4322 7.60788C18.9118 7.88372 19.3903 8.08458 19.5949 8.17294C21.5111 8.92711 22.8666 10.7954 22.8666 12.9794L22.8662 13.0351C23.1872 20.5552 17.4603 25.0877 12.1026 24.5855C11.629 24.5202 11.1666 24.4351 10.7021 24.3201C4.18059 22.7055 2.03105 17.0197 2.16183 12.7562L2.16542 12.7571C2.23565 10.8496 3.26106 9.36548 4.92512 8.36253Z" fill="url(#paint15_radial_6_195)"/>
<path d="M4.92512 8.36253C5.55216 7.98459 7.06686 7.32884 8.78903 7.32884C8.96286 7.32884 9.14852 7.32869 9.34398 7.32853C11.831 7.32655 15.9059 7.3233 17.4322 7.60788C18.9118 7.88372 19.3903 8.08458 19.5949 8.17294C21.5111 8.92711 22.8666 10.7954 22.8666 12.9794L22.8662 13.0351C23.1872 20.5552 17.4603 25.0877 12.1026 24.5855C11.629 24.5202 11.1666 24.4351 10.7021 24.3201C4.18059 22.7055 2.03105 17.0197 2.16183 12.7562L2.16542 12.7571C2.23565 10.8496 3.26106 9.36548 4.92512 8.36253Z" fill="url(#paint16_radial_6_195)"/>
<path d="M19.4458 15.7753C20.7717 15.132 21.1907 13.2587 20.3816 11.5913C19.5725 9.92387 17.8418 9.09366 16.5159 9.737C15.1901 10.3803 14.7711 12.2536 15.5802 13.921C16.3892 15.5885 18.1199 16.4187 19.4458 15.7753Z" fill="url(#paint17_linear_6_195)"/>
<path d="M48.398 8.36253C47.7708 7.98459 46.2562 7.32884 44.5339 7.32884C44.3602 7.32884 44.1744 7.32869 43.9791 7.32853C41.4919 7.32655 37.4171 7.3233 35.8907 7.60788C34.4112 7.88372 33.9327 8.08458 33.7282 8.17294C31.8118 8.92711 30.4564 10.7954 30.4564 12.9794L30.4567 13.0351C30.1358 20.5552 35.8629 25.0877 41.2204 24.5855C41.694 24.5202 42.1564 24.4351 42.6209 24.3201C49.1425 22.7055 51.2919 17.0197 51.1612 12.7562L51.1576 12.7571C51.0873 10.8496 50.062 9.36548 48.398 8.36253Z" fill="url(#paint18_radial_6_195)"/>
<path d="M48.398 8.36253C47.7708 7.98459 46.2562 7.32884 44.5339 7.32884C44.3602 7.32884 44.1744 7.32869 43.9791 7.32853C41.4919 7.32655 37.4171 7.3233 35.8907 7.60788C34.4112 7.88372 33.9327 8.08458 33.7282 8.17294C31.8118 8.92711 30.4564 10.7954 30.4564 12.9794L30.4567 13.0351C30.1358 20.5552 35.8629 25.0877 41.2204 24.5855C41.694 24.5202 42.1564 24.4351 42.6209 24.3201C49.1425 22.7055 51.2919 17.0197 51.1612 12.7562L51.1576 12.7571C51.0873 10.8496 50.062 9.36548 48.398 8.36253Z" fill="url(#paint19_radial_6_195)"/>
<path d="M48.398 8.36253C47.7708 7.98459 46.2562 7.32884 44.5339 7.32884C44.3602 7.32884 44.1744 7.32869 43.9791 7.32853C41.4919 7.32655 37.4171 7.3233 35.8907 7.60788C34.4112 7.88372 33.9327 8.08458 33.7282 8.17294C31.8118 8.92711 30.4564 10.7954 30.4564 12.9794L30.4567 13.0351C30.1358 20.5552 35.8629 25.0877 41.2204 24.5855C41.694 24.5202 42.1564 24.4351 42.6209 24.3201C49.1425 22.7055 51.2919 17.0197 51.1612 12.7562L51.1576 12.7571C51.0873 10.8496 50.062 9.36548 48.398 8.36253Z" fill="url(#paint20_radial_6_195)"/>
<path d="M48.398 8.36253C47.7708 7.98459 46.2562 7.32884 44.5339 7.32884C44.3602 7.32884 44.1744 7.32869 43.9791 7.32853C41.4919 7.32655 37.4171 7.3233 35.8907 7.60788C34.4112 7.88372 33.9327 8.08458 33.7282 8.17294C31.8118 8.92711 30.4564 10.7954 30.4564 12.9794L30.4567 13.0351C30.1358 20.5552 35.8629 25.0877 41.2204 24.5855C41.694 24.5202 42.1564 24.4351 42.6209 24.3201C49.1425 22.7055 51.2919 17.0197 51.1612 12.7562L51.1576 12.7571C51.0873 10.8496 50.062 9.36548 48.398 8.36253Z" fill="url(#paint21_radial_6_195)"/>
<path d="M48.0806 15.7753C49.4065 15.132 49.8254 13.2587 49.0164 11.5913C48.2073 9.92387 46.4766 9.09366 45.1507 9.73699C43.8248 10.3803 43.4059 12.2536 44.2149 13.921C45.024 15.5885 46.7547 16.4187 48.0806 15.7753Z" fill="url(#paint22_linear_6_195)"/>
<defs>
<radialGradient id="paint0_radial_6_195" cx="0" cy="0" r="1" gradientUnits="userSpaceOnUse" gradientTransform="translate(43.6268 12.501) rotate(132.839) scale(66.9754)">
<stop stop-color="#FFF478"/>
<stop offset="0.474827" stop-color="#FFB02E"/>
<stop offset="1" stop-color="#F70A8D"/>
</radialGradient>
<radialGradient id="paint1_radial_6_195" cx="0" cy="0" r="1" gradientUnits="userSpaceOnUse" gradientTransform="translate(43.6268 12.501) rotate(131.878) scale(69.5567)">
<stop stop-color="#FFF478"/>
<stop offset="0.474827" stop-color="#FFB02E"/>
<stop offset="1" stop-color="#F70A8D"/>
</radialGradient>
<radialGradient id="paint2_radial_6_195" cx="0" cy="0" r="1" gradientUnits="userSpaceOnUse" gradientTransform="translate(26.6611 18.7515) rotate(101.31) scale(31.8714 40.8212)">
<stop offset="0.787821" stop-color="#F59639" stop-opacity="0"/>
<stop offset="0.972509" stop-color="#FF7DCE"/>
</radialGradient>
<radialGradient id="paint3_radial_6_195" cx="0" cy="0" r="1" gradientUnits="userSpaceOnUse" gradientTransform="translate(30.2329 21.4303) rotate(135) scale(73.2418)">
<stop offset="0.314853" stop-opacity="0"/>
<stop offset="1"/>
</radialGradient>
<radialGradient id="paint4_radial_6_195" cx="0" cy="0" r="1" gradientUnits="userSpaceOnUse" gradientTransform="translate(26.6611 26.7878) rotate(77.692) scale(50.2663)">
<stop offset="0.507903" stop-color="#7D6133" stop-opacity="0"/>
<stop offset="1" stop-color="#715B32"/>
</radialGradient>
<radialGradient id="paint5_radial_6_195" cx="0" cy="0" r="1" gradientUnits="userSpaceOnUse" gradientTransform="translate(27.5541 25.8949) rotate(55.7131) scale(23.776 17.2341)">
<stop stop-color="#FFB849"/>
<stop offset="1" stop-color="#FFB847" stop-opacity="0"/>
</radialGradient>
<radialGradient id="paint6_radial_6_195" cx="0" cy="0" r="1" gradientUnits="userSpaceOnUse" gradientTransform="translate(34.6975 28.5737) rotate(9.86581) scale(20.8456)">
<stop stop-color="#FFA64B"/>
<stop offset="0.900412" stop-color="#FFAE46" stop-opacity="0"/>
</radialGradient>
<radialGradient id="paint7_radial_6_195" cx="0" cy="0" r="1" gradientUnits="userSpaceOnUse" gradientTransform="translate(29.3399 23.2161) rotate(43.9708) scale(105.46)">
<stop offset="0.185425" stop-opacity="0"/>
<stop offset="1" stop-opacity="0.4"/>
</radialGradient>
<radialGradient id="paint8_radial_6_195" cx="0" cy="0" r="1" gradientUnits="userSpaceOnUse" gradientTransform="translate(26.6617 28.2428) rotate(90) scale(19.5328 30.1245)">
<stop offset="0.145833" stop-color="#2E1529"/>
<stop offset="0.276042" stop-color="#503A4A"/>
<stop offset="0.342857" stop-color="#4B2744"/>
</radialGradient>
<linearGradient id="paint9_linear_6_195" x1="38.605" y1="17.8839" x2="13.4914" y2="27.4616" gradientUnits="userSpaceOnUse">
<stop stop-color="#E78F00"/>
<stop offset="1" stop-color="#D07000"/>
</linearGradient>
<radialGradient id="paint10_radial_6_195" cx="0" cy="0" r="1" gradientUnits="userSpaceOnUse" gradientTransform="translate(35.8139 6.70099) rotate(78.8614) scale(21.9555 45.4968)">
<stop stop-color="#5F5B9B"/>
<stop offset="1" stop-color="#5C3085"/>
</radialGradient>
<radialGradient id="paint11_radial_6_195" cx="0" cy="0" r="1" gradientUnits="userSpaceOnUse" gradientTransform="translate(40.7532 16.0966) rotate(78.0636) scale(9.84775 11.063)">
<stop offset="0.776042" stop-color="#77579C"/>
<stop offset="0.9375" stop-color="#77579C" stop-opacity="0"/>
</radialGradient>
<radialGradient id="paint12_radial_6_195" cx="0" cy="0" r="1" gradientUnits="userSpaceOnUse" gradientTransform="translate(37.1533 14.2909) rotate(-122.735) scale(8.35946 6.1363)">
<stop offset="0.769354" stop-color="#4E3D92"/>
<stop offset="1" stop-color="#534687" stop-opacity="0"/>
</radialGradient>
<radialGradient id="paint13_radial_6_195" cx="0" cy="0" r="1" gradientUnits="userSpaceOnUse" gradientTransform="translate(17.174 12.6166) rotate(121.845) scale(10.5772 12.0159)">
<stop stop-color="#4C3D70"/>
<stop offset="1" stop-color="#361C5D"/>
</radialGradient>
<radialGradient id="paint14_radial_6_195" cx="0" cy="0" r="1" gradientUnits="userSpaceOnUse" gradientTransform="translate(14.9977 12.8957) rotate(87.1376) scale(13.4106 19.9139)">
<stop offset="0.647365" stop-color="#5B2B84" stop-opacity="0"/>
<stop offset="1" stop-color="#5B2B84"/>
</radialGradient>
<radialGradient id="paint15_radial_6_195" cx="0" cy="0" r="1" gradientUnits="userSpaceOnUse" gradientTransform="translate(11.984 26.4012) rotate(-99.5134) scale(20.5973 20.3973)">
<stop offset="0.858612" stop-color="#2E1D57" stop-opacity="0"/>
<stop offset="1" stop-color="#20143D"/>
</radialGradient>
<radialGradient id="paint16_radial_6_195" cx="0" cy="0" r="1" gradientUnits="userSpaceOnUse" gradientTransform="translate(13.7141 11.5563) rotate(102.225) scale(13.7047 12.8621)">
<stop offset="0.872281" stop-color="#2E1D57" stop-opacity="0"/>
<stop offset="1" stop-color="#20143D" stop-opacity="0.6"/>
</radialGradient>
<linearGradient id="paint17_linear_6_195" x1="17.9809" y1="10.0815" x2="18.207" y2="16.2482" gradientUnits="userSpaceOnUse">
<stop stop-color="white"/>
<stop offset="0.973958" stop-color="white" stop-opacity="0"/>
</linearGradient>
<radialGradient id="paint18_radial_6_195" cx="0" cy="0" r="1" gradientUnits="userSpaceOnUse" gradientTransform="translate(42.1205 11.8911) rotate(121.289) scale(11.8204 17.7552)">
<stop stop-color="#4C3D70"/>
<stop offset="1" stop-color="#361C5D"/>
</radialGradient>
<radialGradient id="paint19_radial_6_195" cx="0" cy="0" r="1" gradientUnits="userSpaceOnUse" gradientTransform="translate(38.3254 12.8957) rotate(92.8624) scale(13.4106 19.9139)">
<stop offset="0.647365" stop-color="#5B2B84" stop-opacity="0"/>
<stop offset="1" stop-color="#5B2B84"/>
</radialGradient>
<radialGradient id="paint20_radial_6_195" cx="0" cy="0" r="1" gradientUnits="userSpaceOnUse" gradientTransform="translate(40.8052 24.0015) rotate(-77.6023) scale(18.3422 18.1639)">
<stop offset="0.858612" stop-color="#2E1D57" stop-opacity="0"/>
<stop offset="1" stop-color="#20143D"/>
</radialGradient>
<radialGradient id="paint21_radial_6_195" cx="0" cy="0" r="1" gradientUnits="userSpaceOnUse" gradientTransform="translate(39.6089 11.5563) rotate(77.7749) scale(13.7047 12.8621)">
<stop offset="0.872281" stop-color="#2E1D57" stop-opacity="0"/>
<stop offset="1" stop-color="#20143D" stop-opacity="0.6"/>
</radialGradient>
<linearGradient id="paint22_linear_6_195" x1="46.6157" y1="10.0815" x2="46.8417" y2="16.2482" gradientUnits="userSpaceOnUse">
<stop stop-color="white"/>
<stop offset="0.973958" stop-color="white" stop-opacity="0"/>
</linearGradient>
</defs>
</svg>
